<?xml version="1.0" encoding="UTF-8"?>
<svg version="1.1" xmlns="http://www.w3.org/2000/svg" width="1024" height="1024">
<path d="M0 0 C337.92 0 675.84 0 1024 0 C1024 337.92 1024 675.84 1024 1024 C686.08 1024 348.16 1024 0 1024 C0 686.08 0 348.16 0 0 Z " fill="#FDFDFD" transform="translate(0,0)"/>
<path d="M0 0 C0.66187193 -0.00467997 1.32374386 -0.00935994 2.00567251 -0.01418173 C4.20423193 -0.02606457 6.4021602 -0.01670145 8.60072327 -0.00723267 C10.18481813 -0.01130141 11.76891015 -0.01664499 13.35299683 -0.02316284 C17.64231002 -0.03680736 21.93140606 -0.03154937 26.22072291 -0.02202559 C30.71731433 -0.01441279 35.21388756 -0.02147922 39.71047974 -0.02618408 C47.2618187 -0.03163748 54.81306956 -0.02446152 62.36439514 -0.01016235 C71.08325738 0.00615745 79.80190907 0.00087886 88.5207662 -0.01564157 C96.01737926 -0.02927535 103.5139291 -0.03116668 111.01055056 -0.02332556 C115.48316271 -0.01865868 119.95567606 -0.01799692 124.42828178 -0.02793503 C128.63497536 -0.03662977 132.84139875 -0.0305372 137.04806328 -0.01325226 C138.58792168 -0.00930052 140.12780298 -0.01039889 141.66765213 -0.01704025 C151.7876917 -0.05664864 160.09307807 -0.07083358 167.70469666 7.36831665 C168.21356415 7.89044739 168.72243164 8.41257812 169.24671936 8.95053101 C170.089804 9.78529213 170.089804 9.78529213 170.94992065 10.63691711 C172.78747768 12.46275214 174.60648292 14.3058816 176.42518616 16.15048218 C177.7060626 17.43307155 178.98783107 18.71477066 180.27044678 19.99562073 C182.94850559 22.67532849 185.61786696 25.36331313 188.28089905 28.05795288 C191.68798219 31.50475155 195.11248751 34.93357898 198.54322529 38.35681629 C201.18880973 40.999326 203.82672406 43.64938329 206.46222496 46.30194664 C207.72214997 47.56888199 208.9840138 48.83389241 210.24787331 50.09690285 C212.01417656 51.86501136 213.77033614 53.64261516 215.52406311 55.42318726 C216.04305176 55.9392453 216.56204041 56.45530334 217.09675598 56.98699951 C221.72720974 61.72680924 224.45257832 66.03071416 224.40248108 72.7437439 C224.40225449 73.76434906 224.40202789 74.78495422 224.40179443 75.83648682 C224.38631058 76.92108185 224.37082672 78.00567688 224.35487366 79.12313843 C224.35062881 80.24664703 224.34638397 81.37015564 224.3420105 82.52770996 C224.32526381 86.10403756 224.28761787 89.67979462 224.24940491 93.25595093 C224.23435294 95.68563027 224.22066543 98.11531847 224.20838928 100.54501343 C224.17537337 106.49051947 224.1252134 112.43569442 224.06190491 118.38095093 C220.26795959 113.63973999 220.26795959 113.63973999 218.41346741 111.31063843 C203.53587031 93.60562469 182.9453911 83.03164168 160.06190491 80.38095093 C136.73792767 78.72653092 114.15951674 83.98249329 96.15174866 99.53329468 C95.46210022 100.14302124 94.77245178 100.7527478 94.06190491 101.38095093 C93.46506897 101.83598999 92.86823303 102.29102905 92.25331116 102.75985718 C76.33597357 115.07465646 66.57654471 136.84592502 64.06190491 156.38095093 C62.43955938 183.47440242 68.38772397 206.58929524 86.57752991 227.23641968 C95.41482298 236.42109062 105.25622334 242.21148023 116.62049866 247.68173218 C120.06190491 249.38095093 120.06190491 249.38095093 123.06190491 251.38095093 C106.77173255 251.45112038 90.48160942 251.50397789 74.19132233 251.53638744 C66.62697285 251.55183765 59.06271744 251.57289169 51.49842834 251.60726929 C44.90320664 251.63722838 38.30805308 251.65653935 31.71276522 251.66321641 C28.22256818 251.66711769 24.73256604 251.67624732 21.24243164 251.6981411 C17.34042282 251.72241865 13.43860239 251.72291674 9.53651428 251.7215271 C8.38708344 251.73231293 7.23765259 251.74309875 6.0533905 251.75421143 C-0.55980647 251.72875094 -7.17480773 251.63140402 -12.45528412 247.07051373 C-17.86879787 241.0818763 -18.23312271 234.76513611 -18.20552063 227.12669373 C-18.21005174 226.2036233 -18.21458286 225.28055288 -18.21925128 224.32951063 C-18.23189603 221.24121891 -18.23027485 218.15310353 -18.22862244 215.06478882 C-18.23460755 212.84868646 -18.24141305 210.63258618 -18.24897766 208.41648865 C-18.26664449 202.40002574 -18.27133328 196.38361972 -18.27260923 190.36713338 C-18.27450873 185.34463762 -18.28186668 180.3221551 -18.28895342 175.29966444 C-18.30430695 164.12810703 -18.31029111 152.95657063 -18.30894272 141.78500492 C-18.30882285 140.78026065 -18.30882285 140.78026065 -18.30870056 139.75521851 C-18.3086188 139.08456875 -18.30853704 138.41391899 -18.3084528 137.72294652 C-18.30763969 126.85129992 -18.32678588 115.97979178 -18.35497729 105.10818524 C-18.38371442 93.93778595 -18.39715101 82.76743736 -18.39578974 71.59699625 C-18.39527961 65.32858386 -18.40099174 59.06032828 -18.42214584 52.79194832 C-18.44149449 46.89775702 -18.44167559 41.00387269 -18.42711258 35.10967064 C-18.42501936 32.94693682 -18.42975582 30.78418396 -18.4418335 28.62148285 C-18.45725862 25.6680241 -18.44799557 22.71562748 -18.43257141 19.76219177 C-18.44285854 18.90732007 -18.45314566 18.05244836 -18.46374452 17.17167145 C-18.39769839 11.44508837 -17.48898745 7.95668074 -13.93809509 3.38095093 C-9.24378543 0.67212813 -5.36731672 0.00515439 0 0 Z " fill="#FA3632" transform="translate(193.93809509277344,436.6190490722656)"/>
<path d="M0 0 C3.01176829 2.62983948 5.79531432 5.43910399 8.5703125 8.31640625 C9.23417969 8.94933594 9.89804687 9.58226562 10.58203125 10.234375 C22.60817051 22.47671451 27.87763404 41.11611248 28.0703125 57.81640625 C27.95889783 68.27721363 26.40715701 77.8042218 21.640625 87.25390625 C21.31006104 87.91277832 20.97949707 88.57165039 20.63891602 89.25048828 C19.98955566 90.50319753 19.3094234 91.74064354 18.59350586 92.95654297 C17.25633517 95.45170135 16.45368086 97.55102807 16.88549805 100.38476562 C17.64446894 102.77410863 18.55896676 105.02236122 19.5703125 107.31640625 C20.11643188 108.60490479 20.11643188 108.60490479 20.67358398 109.91943359 C22.24845271 113.5816257 23.87470903 117.21942089 25.51757812 120.8515625 C25.91009766 121.74230469 26.30261719 122.63304687 26.70703125 123.55078125 C27.06498779 124.34709961 27.42294434 125.14341797 27.79174805 125.96386719 C28.65606618 128.57552272 28.79047297 130.58238732 28.5703125 133.31640625 C27.4453125 135.19140625 27.4453125 135.19140625 25.5703125 136.31640625 C20.90403995 135.90288084 17.41965396 134.45305903 13.2890625 132.3046875 C12.11730469 131.71236328 10.94554687 131.12003906 9.73828125 130.50976562 C7.8973895 129.56963633 6.06023002 128.62362705 4.22900391 127.66479492 C2.44561255 126.73543875 0.64868599 125.83220331 -1.1484375 124.9296875 C-2.20998047 124.38094971 -3.27152344 123.83221191 -4.36523438 123.2668457 C-8.18031451 122.08359945 -9.8332351 122.72546882 -13.4296875 124.31640625 C-14.97076172 124.9196875 -14.97076172 124.9196875 -16.54296875 125.53515625 C-18.66905032 126.38662726 -20.79406063 127.24077819 -22.91796875 128.09765625 C-40.84789158 134.32027685 -59.86883358 132.52927913 -76.86303711 124.42578125 C-89.62290916 117.96695775 -100.17141343 108.73187505 -107.4296875 96.31640625 C-107.96078125 95.41664063 -108.491875 94.516875 -109.0390625 93.58984375 C-118.02781189 77.08080404 -120.10578988 58.11364403 -115.59765625 39.890625 C-111.86759648 28.47589358 -106.64989388 18.15394038 -98.4296875 9.31640625 C-97.83929688 8.63578125 -97.24890625 7.95515625 -96.640625 7.25390625 C-87.7392799 -2.4428782 -75.88273725 -8.81436941 -63.4296875 -12.68359375 C-62.64851563 -12.92851563 -61.86734375 -13.1734375 -61.0625 -13.42578125 C-40.56729678 -18.6027703 -16.3480078 -13.40383944 0 0 Z " fill="#023D81" transform="translate(389.4296875,545.68359375)"/>
<path d="M0 0 C4.04809444 1.80013195 7.81630605 3.99354876 11.625 6.25 C12.72038086 6.88115723 13.81576172 7.51231445 14.94433594 8.16259766 C17.20949126 9.46801326 19.47121313 10.77940439 21.72949219 12.09667969 C26.54537475 14.89935366 31.39669462 17.63782167 36.25 20.375 C37.63880371 21.16161011 37.63880371 21.16161011 39.05566406 21.96411133 C46.79842139 26.34391264 54.58232355 30.64746586 62.375 34.9375 C71.90779911 40.18699822 81.43421473 45.44719775 90.9375 50.75 C91.9672998 51.32226318 92.99709961 51.89452637 94.05810547 52.48413086 C107.23417728 59.85126592 107.23417728 59.85126592 110 64 C110.45931923 68.13387309 110.43294883 70.28872692 108.25 73.875 C105.94901202 76.04815531 104.98195949 76.41112565 102 77 C102.01627183 83.33600823 102.07104182 89.67084547 102.15258789 96.00634766 C102.17578472 98.16154385 102.19016754 100.31685368 102.19555664 102.47216797 C102.20483371 105.57070873 102.24579787 108.66745807 102.29296875 111.765625 C102.28706978 113.21113739 102.28706978 113.21113739 102.28105164 114.68585205 C102.29669855 120.16877908 102.29669855 120.16877908 105.4309082 124.46386719 C106.2787085 124.97079102 107.12650879 125.47771484 108 126 C110.85632372 130.43222647 111.56138108 133.76044321 111 139 C109.10672504 144.2590971 106.40216785 146.79008594 102 150 C97.33747142 151.55417619 93.51246673 151.54448802 88.875 149.875 C84.73389177 147.17427724 81.76016896 144.6022962 80.36328125 139.8203125 C79.56398497 134.71512983 79.94297684 131.33900061 83 127 C84.01336426 126.29528564 85.02672852 125.59057129 86.07080078 124.86450195 C87.93485333 123.33687591 88.8635798 122.45006636 89.56756592 120.12753296 C89.78890836 117.87335915 89.8309747 115.68284516 89.8046875 113.41796875 C89.81839386 112.60378983 89.83210022 111.7896109 89.84622192 110.95075989 C89.88347106 108.36244188 89.87981098 105.77604762 89.875 103.1875 C89.89313054 101.42770445 89.91393436 99.66793428 89.9375 97.90820312 C89.98930259 93.60514714 90.00443416 89.30335066 90 85 C89.21821632 85.42474861 89.21821632 85.42474861 88.42063904 85.858078 C86.98334434 86.6389704 85.54591525 87.41961549 84.10836792 88.20004272 C82.61077582 89.01437057 81.11540676 89.83279034 79.62133789 90.65356445 C74.56023363 93.36637495 69.50155035 95.3615001 64 97 C63.90525391 95.80503906 63.90525391 95.80503906 63.80859375 94.5859375 C63.11000825 87.37026465 63.11000825 87.37026465 59.125 81.625 C57.20953288 80.24059413 57.20953288 80.24059413 55 79 C54.14148438 78.50113281 53.28296875 78.00226563 52.3984375 77.48828125 C26.05788276 63.39501948 -7.10308713 59.62833855 -36 67 C-36.67321289 67.17160645 -37.34642578 67.34321289 -38.04003906 67.52001953 C-50.02493721 70.69650012 -67.53347039 75.63149925 -74.1328125 86.94140625 C-75.37283537 89.88506415 -75.63582389 92.84380706 -76 96 C-81.08938399 94.54025421 -85.20545713 92.2881591 -89.6875 89.5625 C-91.18168555 88.66565607 -92.67650311 87.76986445 -94.171875 86.875 C-94.95240234 86.40707031 -95.73292969 85.93914062 -96.53710938 85.45703125 C-99.09756189 83.94228298 -101.67728192 82.46653729 -104.265625 81 C-105.12841064 80.50943115 -105.99119629 80.0188623 -106.88012695 79.51342773 C-108.56069379 78.55995674 -110.24405655 77.6113939 -111.93041992 76.66821289 C-112.69459229 76.2324292 -113.45876465 75.79664551 -114.24609375 75.34765625 C-114.92341553 74.96617432 -115.6007373 74.58469238 -116.29858398 74.19165039 C-118 73 -118 73 -120 70 C-120.4375 66.625 -120.4375 66.625 -120 63 C-115.89887635 57.87996364 -110.4344319 55.17035254 -104.75 52.0625 C-103.73856934 51.50038818 -102.72713867 50.93827637 -101.68505859 50.35913086 C-99.54216347 49.16846891 -97.39742367 47.98112168 -95.25097656 46.796875 C-91.06449417 44.48292859 -86.89324622 42.14234648 -82.72216797 39.80078125 C-79.58725678 38.04131667 -76.45018671 36.28575959 -73.3125 34.53125 C-69.144513 32.20026468 -64.97782213 29.86699393 -60.8125 27.53125 C-50.25228102 21.61013013 -39.68619675 15.69953667 -29.10736084 9.81173706 C-27.35644512 8.83696518 -25.6061924 7.86100272 -23.85595703 6.88500977 C-22.78587402 6.29002686 -21.71579102 5.69504395 -20.61328125 5.08203125 C-19.20236206 4.29662964 -19.20236206 4.29662964 -17.76293945 3.49536133 C-16.85116943 3.00189209 -15.93939941 2.50842285 -15 2 C-13.9797876 1.44304443 -12.9595752 0.88608887 -11.90844727 0.31225586 C-7.54897097 -1.65468656 -4.53944587 -1.28791119 0 0 Z " fill="#023E82" transform="translate(299,307)"/>
<path d="M0 0 C1.01610352 -0.02416992 1.01610352 -0.02416992 2.05273438 -0.04882812 C10.10252917 -0.05654605 15.2459698 3.06343616 21.0625 8.3125 C21.3925 6.3325 21.7225 4.3525 22.0625 2.3125 C27.6725 2.3125 33.2825 2.3125 39.0625 2.3125 C39.13049215 11.91857012 39.18544035 21.52447832 39.21793652 31.1307354 C39.23353929 35.59213128 39.25467814 40.05335285 39.28881836 44.51464844 C39.32160527 48.82647522 39.33939346 53.13813516 39.34713173 57.45007706 C39.35264075 59.08857979 39.36339785 60.72707422 39.37969017 62.36550522 C39.49517689 74.46953431 39.25988485 85.46439269 30.63671875 94.8671875 C21.97476195 103.17770452 11.74923283 103.93236985 0.27270508 103.85546875 C-10.54993345 103.50150459 -18.98004559 100.35220749 -27.64453125 93.7421875 C-28.9375 92.3125 -28.9375 92.3125 -28.9375 89.3125 C-26.96875 86.83203125 -26.96875 86.83203125 -24.4375 84.125 C-23.6021875 83.22394531 -22.766875 82.32289063 -21.90625 81.39453125 C-21.2565625 80.70746094 -20.606875 80.02039063 -19.9375 79.3125 C-19.20144531 79.79460937 -18.46539063 80.27671875 -17.70703125 80.7734375 C-16.24330078 81.72089844 -16.24330078 81.72089844 -14.75 82.6875 C-13.78707031 83.31398438 -12.82414063 83.94046875 -11.83203125 84.5859375 C-4.48835739 88.96637454 3.18433744 89.77279825 11.546875 87.6953125 C16.12518859 85.75038981 18.49965031 83.100321 20.453125 78.55078125 C21.47525232 74.79642898 21.38353441 71.16491293 21.0625 67.3125 C20.51980469 67.66183594 19.97710938 68.01117187 19.41796875 68.37109375 C18.70253906 68.82613281 17.98710938 69.28117188 17.25 69.75 C16.54230469 70.20246094 15.83460938 70.65492188 15.10546875 71.12109375 C7.90507724 75.32017484 -3.59257806 74.32868939 -11.51171875 72.4765625 C-21.58949435 68.63126528 -27.50091732 62.24529295 -32.02734375 52.609375 C-35.64272802 43.48557263 -35.73941058 29.73555107 -32.375 20.5625 C-27.8757932 11.62701236 -20.3777782 4.96278302 -11.15625 1.16796875 C-7.39809994 0.16914003 -3.8592151 -0.01825551 0 0 Z " fill="#043C80" transform="translate(682.9375,454.6875)"/>
<path d="M0 0 C6.93 0 13.86 0 21 0 C22.02996094 2.78695312 23.05992187 5.57390625 24.12109375 8.4453125 C24.47924667 9.41440552 24.8373996 10.38349854 25.20640564 11.38195801 C27.0473777 16.36329342 28.88818974 21.3446879 30.72875977 26.32617188 C34.36657848 36.17143487 38.00530611 46.01635649 41.64927673 55.85934448 C43.20531019 60.06260866 44.76065377 64.26612796 46.31594849 68.46966553 C47.06110658 70.48301777 47.80660798 72.49624299 48.55245972 74.50933838 C49.59704137 77.32882099 50.64043982 80.1487389 51.68359375 82.96875 C51.99119629 83.79805023 52.29879883 84.62735046 52.61572266 85.48178101 C52.90165283 86.25542999 53.18758301 87.02907898 53.48217773 87.82617188 C53.85160744 88.82384583 53.85160744 88.82384583 54.22850037 89.8416748 C55.19522833 92.54616518 56.09176924 95.27530772 57 98 C50.4 98 43.8 98 37 98 C34.42107772 91.68608683 32.16591679 85.49775036 30 79 C10.695 78.505 10.695 78.505 -9 78 C-9.99 81.63 -10.98 85.26 -12 89 C-12.99 91.97 -13.98 94.94 -15 98 C-21.6 98 -28.2 98 -35 98 C-32.95968871 90.14148722 -30.5234844 82.56519095 -27.71875 74.94921875 C-27.10305901 73.26082886 -27.10305901 73.26082886 -26.47492981 71.53833008 C-25.15422391 67.91980928 -23.82725149 64.30362442 -22.5 60.6875 C-21.59232163 58.20496939 -20.68501475 55.72230293 -19.77807617 53.23950195 C-17.58088794 47.22745945 -15.37876059 41.21724049 -13.17523193 35.20751953 C-11.53597811 30.73356123 -9.90249481 26.25750703 -8.26953125 21.78125 C-7.28429792 19.08317106 -6.2984743 16.38530823 -5.3125 13.6875 C-4.87421875 12.48762451 -4.4359375 11.28774902 -3.984375 10.05151367 C-3.59378906 8.98650635 -3.20320312 7.92149902 -2.80078125 6.82421875 C-2.47247314 5.92791748 -2.14416504 5.03161621 -1.8059082 4.1081543 C-1 2 -1 2 0 0 Z " fill="#033D81" transform="translate(522,566)"/>
<path d="M0 0 C19.47 0 38.94 0 59 0 C59 5.28 59 10.56 59 16 C45.8 16 32.6 16 19 16 C19 23.92 19 31.84 19 40 C31.21 40 43.42 40 56 40 C56 45.28 56 50.56 56 56 C43.79 56 31.58 56 19 56 C19 64.25 19 72.5 19 81 C32.53 81 46.06 81 60 81 C60 86.61 60 92.22 60 98 C40.2 98 20.4 98 0 98 C0 65.66 0 33.32 0 0 Z " fill="#043B7E" transform="translate(496,431)"/>
<path d="M0 0 C0 8.25 0 16.5 0 25 C-35.64 25 -71.28 25 -108 25 C-108 17.08 -108 9.16 -108 1 C-102.48473338 -2.44704164 -97.98662119 -5.0882343 -92 -7.125 C-90.89217163 -7.50229248 -90.89217163 -7.50229248 -89.76196289 -7.88720703 C-59.22401362 -17.93734156 -28.54283565 -13.6509214 0 0 Z " fill="#023C80" transform="translate(347,398)"/>
<path d="M0 0 C6.7200244 4.03201464 10.42947984 8.89265127 12.7772522 16.30758667 C13.89748063 21.23626005 13.73936216 26.16106119 13.66796875 31.19140625 C13.66372391 32.33286606 13.65947906 33.47432587 13.65510559 34.65037537 C13.63842151 38.2671651 13.60078766 41.88338098 13.5625 45.5 C13.54743992 47.96418462 13.53375384 50.42837803 13.52148438 52.89257812 C13.48855152 58.90777046 13.43683991 64.92253821 13.375 70.9375 C7.765 70.9375 2.155 70.9375 -3.625 70.9375 C-3.63958252 69.64650391 -3.65416504 68.35550781 -3.66918945 67.02539062 C-3.7274131 62.20936176 -3.80464414 57.39378871 -3.88745117 52.578125 C-3.9205876 50.4987735 -3.94865424 48.41933448 -3.97143555 46.33984375 C-4.00518951 43.34076854 -4.0575156 40.34248713 -4.11328125 37.34375 C-4.11967117 36.42259399 -4.1260611 35.50143799 -4.13264465 34.55236816 C-4.27584483 28.18380332 -4.80604981 21.66835799 -9.625 17 C-14.24367041 14.54633135 -18.66148841 14.06945649 -23.71875 15.55078125 C-28.61769019 17.62551898 -30.46139976 19.80802454 -32.76106262 24.55725098 C-34.309423 28.82316581 -34.22851754 33.06665612 -34.234375 37.5625 C-34.25091125 38.55000244 -34.26744751 39.53750488 -34.28448486 40.55493164 C-34.33273787 43.68251913 -34.35428557 46.80962119 -34.375 49.9375 C-34.40317862 52.06903454 -34.43310868 54.20054669 -34.46484375 56.33203125 C-34.53849091 61.53381417 -34.58820417 66.73533118 -34.625 71.9375 C-40.235 71.9375 -45.845 71.9375 -51.625 71.9375 C-51.625 48.1775 -51.625 24.4175 -51.625 -0.0625 C-46.015 -0.0625 -40.405 -0.0625 -34.625 -0.0625 C-34.295 1.9175 -33.965 3.8975 -33.625 5.9375 C-32.944375 5.174375 -32.26375 4.41125 -31.5625 3.625 C-23.30125421 -3.93316104 -10.0079656 -4.60153806 0 0 Z " fill="#043A7D" transform="translate(623.625,457.0625)"/>
<path d="M0 0 C4.4952965 3.63904954 6.66531528 6.43340449 7.625 12.125 C5.50107494 12.7950834 3.37582476 13.46096797 1.25 14.125 C0.06664062 14.49625 -1.11671875 14.8675 -2.3359375 15.25 C-5.375 16.125 -5.375 16.125 -7.375 16.125 C-8.014375 15.3 -8.65375 14.475 -9.3125 13.625 C-13.2780698 10.38780017 -15.78647395 10.60113286 -20.75390625 10.65625 C-23.78030282 11.19748337 -25.22139905 11.94127876 -27.375 14.125 C-27.70880814 17.75063814 -27.70880814 17.75063814 -27.375 21.125 C-26.06272658 21.52158386 -24.75015324 21.91717515 -23.4375 22.3125 C-22.53515625 22.58835937 -21.6328125 22.86421875 -20.703125 23.1484375 C-18.19790415 23.88353751 -15.69750002 24.56962769 -13.171875 25.2265625 C-3.82660472 27.71262761 2.80830635 29.7077574 8.5625 37.875 C10.74389238 44.54749433 10.41655931 50.12838419 7.4375 56.5 C3.87032951 62.90287062 -1.13147087 66.41643433 -8.11328125 68.69140625 C-16.68717057 70.33510524 -27.54253997 70.25555106 -35.375 66.125 C-41.26830898 61.8738153 -45.4700458 58.29963727 -47.375 51.125 C-45.2996318 50.23127207 -43.21432994 49.36058304 -41.125 48.5 C-39.38476562 47.76910156 -39.38476562 47.76910156 -37.609375 47.0234375 C-34.375 46.125 -34.375 46.125 -32.0703125 46.8515625 C-30.375 48.125 -30.375 48.125 -28.5 50.125 C-25.33593515 53.10294339 -22.45444997 54.125 -18.09375 54.125 C-13.55783183 53.85128572 -13.55783183 53.85128572 -9.6171875 51.8046875 C-7.61213351 49.09345097 -8.19104019 46.37495661 -8.375 43.125 C-13.06716015 40.57169519 -17.63689286 39.07674076 -22.75 37.6875 C-37.50801519 33.47069887 -37.50801519 33.47069887 -41.8125 28.0625 C-44.89691694 22.26379615 -45.52019995 16.27543805 -43.76171875 9.90234375 C-41.01372353 3.61948243 -36.29733426 -0.00217373 -30.20703125 -2.91015625 C-19.89145317 -6.83555322 -9.52337463 -5.29076368 0 0 Z " fill="#053A7E" transform="translate(793.375,595.875)"/>
<path d="M0 0 C3.54597928 2.70545086 5.44236038 5.73285407 7.08203125 9.83203125 C7.08203125 10.49203125 7.08203125 11.15203125 7.08203125 11.83203125 C4.95810619 12.50211465 2.83285601 13.16799922 0.70703125 13.83203125 C-0.47632813 14.20328125 -1.6596875 14.57453125 -2.87890625 14.95703125 C-5.91796875 15.83203125 -5.91796875 15.83203125 -7.91796875 15.83203125 C-8.55734375 15.00703125 -9.19671875 14.18203125 -9.85546875 13.33203125 C-13.82103855 10.09483142 -16.3294427 10.30816411 -21.296875 10.36328125 C-24.25267894 10.89189 -25.69207127 11.86276666 -27.91796875 13.83203125 C-27.58796875 16.14203125 -27.25796875 18.45203125 -26.91796875 20.83203125 C-26.13035156 21.074375 -25.34273437 21.31671875 -24.53125 21.56640625 C-22.23556695 22.27277027 -19.94140049 22.98407435 -17.6484375 23.69921875 C-15.24531147 24.42896383 -12.83140279 25.12452175 -10.40625 25.77734375 C-1.96173645 28.11159953 3.57263093 30.46081779 8.01953125 38.20703125 C10.1538911 45.48896487 9.34879995 50.73020846 6.33203125 57.5703125 C3.24239876 63.16061629 -2.06994102 65.95171887 -7.87890625 68.1015625 C-17.48981667 70.41163994 -28.35138136 70.07312765 -36.91796875 64.83203125 C-41.48543001 61.52591006 -45.53305197 58.0490367 -47.91796875 52.83203125 C-47.91796875 52.17203125 -47.91796875 51.51203125 -47.91796875 50.83203125 C-46.00756823 49.96394045 -44.08936138 49.11301342 -42.16796875 48.26953125 C-41.100625 47.79386719 -40.03328125 47.31820312 -38.93359375 46.828125 C-35.89984606 45.82604513 -34.77381787 45.52758575 -31.91796875 46.83203125 C-30.25130208 48.49869792 -28.58463542 50.16536458 -26.91796875 51.83203125 C-22.78968454 54.42695275 -18.89628777 53.83312672 -14.22265625 53.4140625 C-11.55516814 52.74040872 -10.55034754 52.02423225 -8.91796875 49.83203125 C-8.36930648 45.75482875 -8.36930648 45.75482875 -10.15576172 42.23168945 C-12.2496319 40.56860304 -13.89610318 40.07195461 -16.48828125 39.4375 C-17.8340625 39.08655273 -17.8340625 39.08655273 -19.20703125 38.72851562 C-21.07284822 38.26206138 -22.94001578 37.80097106 -24.80859375 37.34570312 C-32.32202169 35.37102014 -39.14278848 32.44817524 -43.98046875 26.14453125 C-45.74075967 19.92483666 -46.02015387 13.54503547 -43.41796875 7.51953125 C-39.67122952 1.10406196 -33.34734652 -2.68466071 -26.328125 -4.6953125 C-16.92093492 -6.54015853 -8.21539265 -5.00285621 0 0 Z " fill="#043B80" transform="translate(630.91796875,596.16796875)"/>
<path d="M0 0 C2.81129183 3.06686381 4.41429231 6.45635996 6.0625 10.25 C4.50229133 10.90134925 2.93921421 11.54582964 1.375 12.1875 C0.50488281 12.54714844 -0.36523438 12.90679688 -1.26171875 13.27734375 C-3.85572883 14.22027588 -6.192564 14.9475918 -8.9375 15.25 C-11.125 13.375 -11.125 13.375 -12.9375 11.25 C-15.37704658 10.03022671 -17.09055849 10.04846187 -19.8125 10 C-20.67617188 9.97421875 -21.53984375 9.9484375 -22.4296875 9.921875 C-25.44781178 10.31676977 -26.78875254 11.11610563 -28.9375 13.25 C-29.27147787 16.37586875 -29.27147787 16.37586875 -28.9375 19.25 C-23.48629339 21.9277857 -18.35199891 23.70742624 -12.4375 25.125 C-4.84723579 27.01194138 1.14708497 29.62781769 6.125 35.8125 C7.7973458 41.9444346 8.41125318 48.64179705 6.1484375 54.6953125 C2.61100607 60.69753487 -2.58768867 65.49941296 -9.27734375 67.7421875 C-19.13771684 69.62449073 -30.18656052 69.57951953 -38.9375 64.25 C-43.69976681 60.96440507 -47.08435303 57.27153867 -49.9375 52.25 C-49.9375 51.59 -49.9375 50.93 -49.9375 50.25 C-47.83578133 49.4105118 -45.73103375 48.57860344 -43.625 47.75 C-42.45324219 47.2859375 -41.28148437 46.821875 -40.07421875 46.34375 C-36.9375 45.25 -36.9375 45.25 -33.9375 45.25 C-32.69726283 46.75133973 -31.45946926 48.25501499 -30.25 49.78125 C-27.4378156 52.92821826 -24.49852197 53.209927 -20.4375 53.5 C-17.07182169 53.25959441 -14.88647121 52.85087009 -11.9375 51.25 C-9.78247469 48.01746204 -9.46893865 46.99849077 -9.9375 43.25 C-12.13205534 40.45819501 -14.14866485 39.67115852 -17.54296875 38.8203125 C-18.44466797 38.58183594 -19.34636719 38.34335937 -20.27539062 38.09765625 C-22.15491955 37.62101081 -24.03511709 37.14699306 -25.91601562 36.67578125 C-32.8072766 34.8465892 -38.97843154 32.49542992 -43.875 27.125 C-46.84023009 21.89224102 -46.47444241 16.08074077 -45.9375 10.25 C-44.29376447 5.03701019 -40.57456133 1.03993317 -35.9375 -1.75 C-23.450724 -7.85375952 -11.90831926 -7.09431786 0 0 Z " fill="#043C80" transform="translate(697.9375,596.75)"/>
<path d="M0 0 C0 6.6 0 13.2 0 20 C5.61 20 11.22 20 17 20 C17 24.62 17 29.24 17 34 C11.39 34 5.78 34 0 34 C0.07403144 39.05456011 0.15688304 44.10735995 0.26245117 49.16113281 C0.29567681 50.87978965 0.32371616 52.59855499 0.34643555 54.31738281 C0.38002561 56.79018323 0.43234178 59.26199156 0.48828125 61.734375 C0.49467117 62.50118591 0.5010611 63.26799683 0.50764465 64.05804443 C0.59561183 67.25977218 0.79188037 69.62011648 2.34448242 72.45410156 C5.33910074 75.25043296 8.29635543 75.11303435 12.1875 75.0625 C14.5696875 75.0315625 14.5696875 75.0315625 17 75 C17 79.95 17 84.9 17 90 C10.81590386 93.09204807 1.34766259 91.04307359 -5 89 C-9.57617515 86.91992039 -12.03296315 83.95604913 -15 80 C-15.92687325 77.21938025 -16.12193396 75.57948141 -16.11352539 72.7121582 C-16.11344986 71.85149246 -16.11337433 70.99082672 -16.11329651 70.1040802 C-16.10813522 69.17899155 -16.10297394 68.25390289 -16.09765625 67.30078125 C-16.0962413 66.35059616 -16.09482635 65.40041107 -16.09336853 64.4214325 C-16.08776875 61.38508971 -16.07521632 58.34882052 -16.0625 55.3125 C-16.05748497 53.25455836 -16.05292207 51.19661556 -16.04882812 49.13867188 C-16.0377994 44.09241954 -16.02053493 39.04622225 -16 34 C-19.96 34 -23.92 34 -28 34 C-28 29.38 -28 24.76 -28 20 C-24.04 20 -20.08 20 -16 20 C-16 14.72 -16 9.44 -16 4 C-3.375 0 -3.375 0 0 0 Z " fill="#03387B" transform="translate(837,573)"/>
<path d="M0 0 C8.34150084 5.40652832 15.27880496 12.20242039 17.5546875 22.078125 C18.71527631 30.72674356 17.19188778 37.90265933 11.87109375 44.89453125 C7.91557755 49.37068805 3.65846238 53.56737206 -0.69140625 57.66015625 C-4.09328994 61.44840346 -4.44901994 65.28978939 -5.1015625 70.23046875 C-6.1015625 71.23046875 -6.1015625 71.23046875 -9.69921875 71.328125 C-11.18753117 71.32145095 -12.67582682 71.30949058 -14.1640625 71.29296875 C-14.92267578 71.28845703 -15.68128906 71.28394531 -16.46289062 71.27929688 C-18.34248121 71.26747555 -20.22203149 71.24953953 -22.1015625 71.23046875 C-22.23889855 69.3993214 -22.33459474 67.56503864 -22.4140625 65.73046875 C-22.47207031 64.70953125 -22.53007812 63.68859375 -22.58984375 62.63671875 C-21.45143828 54.69520217 -15.81427008 49.61975231 -9.9765625 44.60546875 C-4.58818042 39.96765133 -0.52531238 36.18546767 0.2734375 28.73046875 C-0.29658973 23.41021464 -1.75425358 20.44946253 -5.7265625 16.85546875 C-10.04173487 14.77779317 -13.39536582 14.39549837 -18.1015625 15.23046875 C-22.53291671 17.44614586 -25.05708611 19.71109988 -27.1015625 24.23046875 C-27.4315625 26.21046875 -27.7615625 28.19046875 -28.1015625 30.23046875 C-33.7115625 30.23046875 -39.3215625 30.23046875 -45.1015625 30.23046875 C-45.1015625 20.52479295 -42.63792544 14.04657379 -35.9609375 6.984375 C-26.66016822 -1.78882964 -12.14513058 -5.64828125 0 0 Z " fill="#F9FBFC" transform="translate(358.1015625,556.76953125)"/>
<path d="M0 0 C5.07512161 2.35630646 8.19144975 5.42389648 10.66015625 10.50390625 C11.76836356 13.85210706 11.87914647 16.69093483 11.890625 20.21484375 C11.90738281 21.39949219 11.92414062 22.58414062 11.94140625 23.8046875 C11.38113542 29.16039473 9.39560074 33.07145601 5.265625 36.52734375 C0.42907359 40.39253756 -4.0938114 41.7342238 -10.34375 41.51953125 C-15.91725843 40.86998703 -19.98844922 39.14301961 -23.796875 34.96484375 C-28.47461332 28.86344594 -29.14173206 22.77778991 -28.421875 15.27734375 C-27.15007079 8.73333301 -23.87965331 4.96281125 -18.421875 1.27734375 C-13.02675987 -2.02532631 -5.94014897 -1.77246381 0 0 Z " fill="#F9FBFC" transform="translate(694.421875,471.72265625)"/>
<path d="M0 0 C0.88173386 -0.00700928 1.76346771 -0.01401855 2.67192078 -0.02124023 C5.58563762 -0.03884109 8.4983827 -0.02719007 11.41210938 -0.01367188 C13.43705431 -0.01636619 15.46199798 -0.0202481 17.48693848 -0.02526855 C21.73051269 -0.03116644 25.97375009 -0.02259118 30.21728516 -0.00390625 C35.658397 0.01888332 41.09871966 0.00576181 46.53980255 -0.01819611 C50.72110955 -0.03264615 54.90222925 -0.02805171 59.08354187 -0.01768494 C61.08981927 -0.01501546 63.09611364 -0.01829514 65.10237122 -0.02760315 C67.90594561 -0.03775558 70.70823978 -0.02228605 73.51171875 0 C74.34197067 -0.00809692 75.1722226 -0.01619385 76.02763367 -0.02453613 C79.64435211 0.02876112 81.81331771 0.1929903 84.77111816 2.36242676 C86.80418162 5.31348615 86.84096601 7.00693833 86.25585938 10.51757812 C84.77111816 12.67272949 84.77111816 12.67272949 82.25585938 14.51757812 C79.21984411 14.91209608 76.54718247 15.06475921 73.51171875 15.03515625 C72.62998489 15.04216553 71.74825104 15.0491748 70.83979797 15.05639648 C67.92608113 15.07399734 65.01333605 15.06234632 62.09960938 15.04882812 C60.07466444 15.05152244 58.04972077 15.05540435 56.02478027 15.0604248 C51.78120606 15.06632269 47.53796866 15.05774743 43.29443359 15.0390625 C37.85332175 15.01627293 32.41299908 15.02939444 26.9719162 15.05335236 C22.7906092 15.0678024 18.6094895 15.06320796 14.42817688 15.05284119 C12.42189948 15.05017171 10.41560511 15.05345139 8.40934753 15.0627594 C5.60577314 15.07291183 2.80347897 15.0574423 0 15.03515625 C-1.24537788 15.04730164 -1.24537788 15.04730164 -2.51591492 15.05969238 C-6.13263336 15.00639513 -8.30159896 14.84216595 -11.25939941 12.67272949 C-13.29246287 9.7216701 -13.32924726 8.02821792 -12.74414062 4.51757812 C-9.41502739 -0.31474072 -5.40823101 -0.05274307 0 0 Z " fill="#FDFBFA" transform="translate(220.744140625,472.482421875)"/>
<path d="M0 0 C5.28 0 10.56 0 16 0 C16 23.43 16 46.86 16 71 C10.72 71 5.44 71 0 71 C0 47.57 0 24.14 0 0 Z " fill="#02387A" transform="translate(741,457)"/>
<path d="M0 0 C5.28 0 10.56 0 16 0 C16 23.43 16 46.86 16 71 C10.72 70.67 5.44 70.34 0 70 C0 46.9 0 23.8 0 0 Z " fill="#03377C" transform="translate(718,593)"/>
<path d="M0 0 C1.16801147 -0.01260864 2.33602295 -0.02521729 3.53942871 -0.03820801 C4.79678833 -0.03011108 6.05414795 -0.02201416 7.34960938 -0.01367188 C8.64402954 -0.01749878 9.93844971 -0.02132568 11.27209473 -0.02526855 C14.00922783 -0.03115875 16.74583796 -0.02261726 19.48291016 -0.00390625 C22.98707964 0.01888443 26.49002371 0.00575858 29.99414825 -0.01819611 C33.34189958 -0.03614642 36.68932325 -0.02356948 40.03710938 -0.01367188 C41.29446899 -0.0217688 42.55182861 -0.02986572 43.84729004 -0.03820801 C45.59930725 -0.01929504 45.59930725 -0.01929504 47.38671875 0 C48.41390015 0.00318237 49.44108154 0.00636475 50.49938965 0.00964355 C53.90621123 0.65198279 55.0941822 1.80586575 57.19335938 4.51757812 C57.69335938 7.51757812 57.69335938 7.51757812 57.19335938 10.51757812 C55.32626027 12.82033369 53.83688196 14.19581683 51.19335938 15.51757812 C49.46358526 15.62343689 47.72979238 15.66635363 45.99682617 15.67871094 C44.36954842 15.69312225 44.36954842 15.69312225 42.70939636 15.70782471 C41.53234634 15.71207458 40.35529633 15.71632446 39.14257812 15.72070312 C37.33343681 15.72925323 37.33343681 15.72925323 35.48774719 15.73797607 C32.93137492 15.74743658 30.3749904 15.75396421 27.81860352 15.7578125 C23.9074981 15.76751206 19.99691935 15.79852403 16.0859375 15.83007812 C13.60482084 15.83660857 11.12370041 15.84185888 8.64257812 15.84570312 C6.88611214 15.86422333 6.88611214 15.86422333 5.09416199 15.88311768 C3.99985367 15.88011658 2.90554535 15.87711548 1.77807617 15.87402344 C0.81814255 15.87766907 -0.14179108 15.8813147 -1.1308136 15.8850708 C-4.32501896 15.44638509 -6.20949265 14.39812517 -8.80664062 12.51757812 C-10.22705883 9.67674171 -10.12116335 7.66280535 -9.80664062 4.51757812 C-6.84331734 0.64850987 -4.79167601 0.01484538 0 0 Z " fill="#FDF5F5" transform="translate(217.806640625,515.482421875)"/>
<path d="M0 0 C2.23654438 -0.00970091 4.47216746 -0.04073334 6.70849609 -0.07226562 C8.13687607 -0.07879678 9.5652626 -0.08404681 10.99365234 -0.08789062 C12.28899902 -0.09723633 13.5843457 -0.10658203 14.91894531 -0.11621094 C18.88381608 0.29253863 21.53989226 1.40366179 24.37646484 4.24023438 C24.95720959 10.39612864 24.95720959 10.39612864 22.86474609 13.4375 C19.43181176 15.92462589 16.33495061 15.81532013 12.25146484 15.77148438 C11.46755371 15.77531128 10.68364258 15.77913818 9.87597656 15.78308105 C8.22182935 15.7857979 6.56763902 15.77845248 4.91357422 15.76171875 C2.38460323 15.74030329 -0.1415273 15.76152535 -2.67041016 15.78710938 C-4.27979141 15.78446606 -5.88917091 15.77934098 -7.49853516 15.77148438 C-8.25279785 15.7795813 -9.00706055 15.78767822 -9.78417969 15.79602051 C-13.25363215 15.73419298 -15.26805052 15.49971017 -18.10400391 13.4296875 C-20.30618662 10.2566196 -20.10283613 8.00617061 -19.62353516 4.24023438 C-15.40069718 -1.7923913 -6.54486977 0.01720448 0 0 Z " fill="#FDF3F2" transform="translate(227.62353515625,557.759765625)"/>
<path d="M0 0 C3.30359241 1.65179621 3.70151903 5.31636413 4.8203125 8.6484375 C5.21559647 9.80093491 5.21559647 9.80093491 5.61886597 10.97671509 C6.17539942 12.6046885 6.72828799 14.23391175 7.27783203 15.86425781 C8.1201476 18.36061901 8.9751248 20.8523647 9.83203125 23.34375 C10.37055167 24.92422041 10.90833659 26.50494166 11.4453125 28.0859375 C11.82962936 29.20637955 11.82962936 29.20637955 12.22171021 30.34945679 C13.22855035 33.35228217 14 35.81017307 14 39 C5.09 39 -3.82 39 -13 39 C-11.24790122 33.15967075 -9.51210479 27.42450991 -7.51953125 21.6796875 C-7.30181564 21.05015167 -7.08410004 20.42061584 -6.85978699 19.77200317 C-6.17927511 17.80566484 -5.49595197 15.8403181 -4.8125 13.875 C-4.3442124 12.52350285 -3.87611214 11.17194077 -3.40820312 9.8203125 C-2.27429036 6.54612498 -1.13785829 3.27281876 0 0 Z " fill="#F7FAFC" transform="translate(532,589)"/>
<path d="M0 0 C21.29656684 -0.0700605 42.59311469 -0.12297368 63.88977337 -0.15543652 C73.77803587 -0.17090976 83.6662268 -0.19200805 93.55444336 -0.22631836 C102.17234701 -0.25620668 110.79019883 -0.27557167 119.40815288 -0.28226548 C123.97190664 -0.2861787 128.5355121 -0.29538484 133.09921837 -0.31719017 C137.39440913 -0.33754635 141.68939044 -0.34383556 145.98462486 -0.33932304 C147.56122984 -0.34014863 149.13784179 -0.34611952 150.71440506 -0.35761642 C152.86741176 -0.37254736 155.01962813 -0.36895198 157.1726532 -0.36076355 C158.97982834 -0.36491162 158.97982834 -0.36491162 160.82351208 -0.36914349 C164.28416035 0.03302262 166.18754444 0.99580993 169 3 C167 4 167 4 165.28692436 3.57085705 C162.28402073 2.82127882 159.50509469 2.87067227 156.40921021 2.86628723 C155.74849042 2.86402167 155.08777063 2.86175612 154.40702903 2.85942191 C152.19467472 2.85309548 149.98238188 2.8539104 147.77001953 2.85473633 C146.18312501 2.85174399 144.59623121 2.84834129 143.00933838 2.84455872 C138.69938859 2.83572213 134.38945865 2.83338075 130.07950068 2.83274293 C126.48110808 2.83179328 122.88272011 2.82811434 119.2843293 2.82457083 C110.79420543 2.81642758 102.30409217 2.81398648 93.81396484 2.81469727 C85.05711307 2.81529805 76.3003229 2.80474585 67.54348671 2.7889536 C60.02405098 2.77587633 52.50463538 2.77051345 44.98518836 2.77115268 C40.49472315 2.77140761 36.00431268 2.76855908 31.5138588 2.75797462 C27.29004024 2.74829051 23.06632874 2.74821662 18.84250641 2.75549126 C17.29374154 2.75653671 15.74497 2.75417656 14.19621658 2.7481308 C12.07893785 2.74040213 9.96202799 2.74506123 7.84475708 2.75276184 C6.06888057 2.75194469 6.06888057 2.75194469 4.25712776 2.75111103 C0.87793925 3.00932711 -1.84524216 3.79247101 -5 5 C-4.67 3.68 -4.34 2.36 -4 1 C-2.02 1.495 -2.02 1.495 0 2 C0 1.34 0 0.68 0 0 Z " fill="#FFC6C3" transform="translate(186,435)"/>
<path d="M0 0 C4.52981712 1.70534292 8.80636334 3.82888212 13.125 6 C13.84042969 6.35578125 14.55585938 6.7115625 15.29296875 7.078125 C15.98261719 7.42359375 16.67226563 7.7690625 17.3828125 8.125 C18.31697998 8.59292969 18.31697998 8.59292969 19.27001953 9.0703125 C21 10 21 10 24 12 C7.70982764 12.07016945 -8.58029548 12.12302696 -24.87058258 12.15543652 C-32.43493206 12.17088672 -39.99918747 12.19194076 -47.56347656 12.22631836 C-54.15869827 12.25627745 -60.75385183 12.27558842 -67.34913969 12.28226548 C-70.83933673 12.28616677 -74.32933887 12.2952964 -77.81947327 12.31719017 C-81.72148209 12.34146772 -85.62330252 12.34196582 -89.52539062 12.34057617 C-91.2495369 12.35675491 -91.2495369 12.35675491 -93.0085144 12.3732605 C-100.43039454 12.34468663 -106.68464007 11.90093993 -112.5 6.8125 C-112.995 6.214375 -113.49 5.61625 -114 5 C-113.67 4.34 -113.34 3.68 -113 3 C-111.50260417 4.26953125 -110.00520833 5.5390625 -108.5078125 6.80859375 C-105.79559395 8.95166799 -104.00744369 9.12414649 -100.62142944 9.12025452 C-99.70153732 9.12162918 -98.7816452 9.12300385 -97.83387756 9.12442017 C-96.82183762 9.12082489 -95.80979767 9.11722961 -94.76708984 9.11352539 C-93.17194298 9.11374443 -93.17194298 9.11374443 -91.54457092 9.1139679 C-88.01667263 9.11326919 -84.48882661 9.10547871 -80.9609375 9.09765625 C-78.51998931 9.09579192 -76.07904074 9.09436809 -73.63809204 9.09336853 C-67.20352145 9.08954451 -60.76897332 9.0797152 -54.33441162 9.06866455 C-47.77242334 9.05844795 -41.21043144 9.05387038 -34.6484375 9.04882812 C-21.7656154 9.03809284 -8.88280889 9.02120915 4 9 C4 7.35 4 5.7 4 4 C2.35 3.67 0.7 3.34 -1 3 C-0.67 2.01 -0.34 1.02 0 0 Z " fill="#DE2424" transform="translate(293,676)"/>
<path d="M0 0 C3.40971716 2.41521632 4.68340622 4.05021865 6 8 C6 11.6860549 5.31141604 13.14925356 3 16 C0.24116669 18.16232881 -1.51542103 18.93942763 -5 19.375 C-8.45001843 18.9437477 -10.26337663 18.12848485 -13 16 C-15.32402951 12.79062591 -15.47570691 9.88493979 -15 6 C-10.94628674 -0.08056989 -7.0634014 -1.07353942 0 0 Z " fill="#073879" transform="translate(754,429)"/>
<path d="M0 0 C3.0625 1.9375 3.0625 1.9375 5 5 C5.62337099 8.12798656 5.6483903 10.87487559 5 14 C3.12379387 16.50160818 1.76108697 17.61945652 -1 19 C-5.97067782 19.3751455 -9.05151502 19.15878799 -13 16 C-15.11154871 13.40855385 -15.1350172 11.22611429 -14.9375 8 C-14.434744 4.9721661 -13.99218187 3.99022734 -12 1.5 C-7.88971742 -0.55514129 -4.50593723 -0.91259488 0 0 Z " fill="#053F84" transform="translate(731,565)"/>
<path d="M0 0 C2.87029869 1.79393668 4.49131638 2.98263276 6 6 C6.54837085 10.02138622 6.1184148 11.78685336 4.125 15.375 C1.64583159 18.05958522 -0.39189854 18.49901709 -4 18.6875 C-7.62808727 18.4438225 -8.97000812 18.0191948 -12.125 16 C-14.19644396 12.68568966 -14.75664966 10.78233382 -14.47265625 6.9375 C-12.69089482 -0.36624934 -6.37798419 -1.28252943 0 0 Z " fill="#F8FBFC" transform="translate(349,638)"/>
<path d="M0 0 C5.11762818 2.65358498 8.17705942 5.53117826 10 11 C10.35947515 15.94278331 10.1590621 18.2174388 7 22 C7.08701172 20.67935547 7.08701172 20.67935547 7.17578125 19.33203125 C7.54688243 12.29456141 7.54688243 12.29456141 5.25 5.8125 C0.41869869 3.11812042 -4.54908369 2.58247431 -10 2 C-10.30035156 2.62390625 -10.60070312 3.2478125 -10.91015625 3.890625 C-12 6 -12 6 -13.4375 7.75 C-15.31912965 10.4595467 -16.22968268 13.17400544 -17.25390625 16.29296875 C-18 18 -18 18 -20 19 C-22.89522008 18.74861862 -25.74607241 18.43872349 -28.625 18.0625 C-29.42679687 17.96259766 -30.22859375 17.86269531 -31.0546875 17.75976562 C-33.03714691 17.5119582 -35.01867009 17.25668193 -37 17 C-37.05422947 15.5629191 -37.09289723 14.12524538 -37.125 12.6875 C-37.14820313 11.88699219 -37.17140625 11.08648438 -37.1953125 10.26171875 C-37 8 -37 8 -35 5 C-35.33 8.63 -35.66 12.26 -36 16 C-30.39 16 -24.78 16 -19 16 C-19 14.02 -19 12.04 -19 10 C-14.8376398 1.99546116 -8.88439847 -1.59218611 0 0 Z " fill="#0A205A" transform="translate(349,571)"/>
<path d="M0 0 C1.05055321 0.00424484 1.05055321 0.00424484 2.12232971 0.00857544 C4.33303795 0.01966365 6.54332296 0.04474547 8.75390625 0.0703125 C10.26366597 0.08035704 11.77343213 0.0894803 13.28320312 0.09765625 C16.96107222 0.11956536 20.63869785 0.15401492 24.31640625 0.1953125 C23.98640625 1.1853125 23.65640625 2.1753125 23.31640625 3.1953125 C22.557229 3.17960205 21.79805176 3.1638916 21.01586914 3.14770508 C3.00037278 2.82466107 -13.32055566 3.29119521 -30.58203125 8.7421875 C-32.68359375 9.1953125 -32.68359375 9.1953125 -35.68359375 8.1953125 C-34.41519849 7.68915952 -33.14376273 7.19062151 -31.87109375 6.6953125 C-30.80955078 6.27765625 -30.80955078 6.27765625 -29.7265625 5.8515625 C-27.68359375 5.1953125 -27.68359375 5.1953125 -24.68359375 5.1953125 C-24.35359375 4.2053125 -24.02359375 3.2153125 -23.68359375 2.1953125 C-22.83087891 2.23011719 -22.83087891 2.23011719 -21.9609375 2.265625 C-20.80271484 2.29269531 -20.80271484 2.29269531 -19.62109375 2.3203125 C-18.48994141 2.35511719 -18.48994141 2.35511719 -17.3359375 2.390625 C-14.55153282 2.2872038 -14.55153282 2.2872038 -11.49804688 1.1953125 C-7.48745455 0.1438925 -4.13801346 -0.03323706 0 0 Z " fill="#092868" transform="translate(284.68359375,367.8046875)"/>
<path d="M0 0 C0 0.66 0 1.32 0 2 C-1.98 2.66 -3.96 3.32 -6 4 C-6 4.66 -6 5.32 -6 6 C-5.34 6.33 -4.68 6.66 -4 7 C-3.70996094 7.62519531 -3.41992188 8.25039063 -3.12109375 8.89453125 C-1.7756163 11.42140352 -0.50823801 12.24374032 1.9375 13.6875 C2.62714844 14.10386719 3.31679688 14.52023437 4.02734375 14.94921875 C8.95225852 17.57258919 13.74778459 17.25657421 19.1875 17.3125 C20.56905273 17.35600586 20.56905273 17.35600586 21.97851562 17.40039062 C28.497155 17.46053421 32.32684189 16.15461 38 13 C38.66 13.33 39.32 13.66 40 14 C30.91066162 20.49238456 21.81762178 21.04872727 11 20 C2.82837723 18.17948657 -3.65390192 13.58371155 -8.4375 6.75 C-10 4 -10 4 -10 2 C-8.71211992 1.46987262 -7.41953322 0.9511671 -6.125 0.4375 C-5.40570312 0.14746094 -4.68640625 -0.14257812 -3.9453125 -0.44140625 C-2 -1 -2 -1 0 0 Z " fill="#0C265D" transform="translate(658,645)"/>
<path d="M0 0 C4.05273438 2.63671875 4.05273438 2.63671875 8.10546875 5.2734375 C13.0982352 8.25157889 16.99933745 9.27268712 22.8125 9.625 C24.55466797 9.73714844 24.55466797 9.73714844 26.33203125 9.8515625 C27.21246094 9.90054688 28.09289062 9.94953125 29 10 C29 10.33 29 10.66 29 11 C12.80624886 11.62195061 12.80624886 11.62195061 6 8 C4.64852862 6.68505488 3.30887458 5.35735142 2 4 C-0.21858253 4.13641377 -0.21858253 4.13641377 -2 5 C-2.0825 5.598125 -2.165 6.19625 -2.25 6.8125 C-3.20630014 9.60170874 -4.62860019 10.34476293 -7 12 C-1.83132665 15.62158745 3.09627893 18.73900044 9 21 C6 22 6 22 3.22265625 20.9609375 C2.17980469 20.43757812 1.13695312 19.91421875 0.0625 19.375 C-0.97777344 18.86710938 -2.01804687 18.35921875 -3.08984375 17.8359375 C-6 16 -6 16 -10 11 C-6.7 7.37 -3.4 3.74 0 0 Z " fill="#0B255D" transform="translate(663,534)"/>
<path d="M0 0 C0.88786697 -0.00014603 1.77573395 -0.00029205 2.69050598 -0.0004425 C5.63402728 0.00025584 8.57748581 0.00804458 11.52099609 0.01586914 C13.55837978 0.0177336 15.5957639 0.01915737 17.63314819 0.02015686 C23.00241325 0.02397984 28.37165137 0.03380828 33.74090576 0.04486084 C39.217078 0.05507966 44.69325458 0.05965549 50.16943359 0.06469727 C60.91944545 0.07543072 71.66943728 0.09250454 82.41943359 0.11352539 C82.41943359 0.44352539 82.41943359 0.77352539 82.41943359 1.11352539 C80.76359001 1.12565567 80.76359001 1.12565567 79.07429504 1.13803101 C68.67143548 1.21551354 58.26870637 1.30325829 47.86601734 1.40105247 C42.51788235 1.45099963 37.16976697 1.49732995 31.8215332 1.53540039 C26.66025981 1.57227297 21.49915103 1.61863854 16.33801842 1.6715889 C14.36888199 1.69012231 12.39971028 1.70523416 10.43052101 1.71686935 C7.67250332 1.73374967 4.91486176 1.76278929 2.15698242 1.79467773 C1.34274307 1.79683792 0.52850372 1.79899811 -0.31040955 1.80122375 C-4.49493093 1.86303637 -7.81655963 2.22551081 -11.58056641 4.11352539 C-11.25056641 3.12352539 -10.92056641 2.13352539 -10.58056641 1.11352539 C-7.28508838 -0.53421362 -3.62149477 -0.01543186 0 0 Z " fill="#FEE8E4" transform="translate(220.58056640625,472.886474609375)"/>
<path d="M0 0 C3.0625 1.9375 3.0625 1.9375 5 5 C5.38759905 8.04979253 5.29945463 10.94556273 5 14 C4.01 14.495 4.01 14.495 3 15 C3.03480469 14.37351562 3.06960938 13.74703125 3.10546875 13.1015625 C3.13253906 12.28429687 3.15960937 11.46703125 3.1875 10.625 C3.22230469 9.81289063 3.25710938 9.00078125 3.29296875 8.1640625 C3.19628906 7.44992187 3.09960938 6.73578125 3 6 C2.01 5.34 1.02 4.68 0 4 C0 3.34 0 2.68 0 2 C-2.97 2 -5.94 2 -9 2 C-9.66 3.65 -10.32 5.3 -11 7 C-11.66 7 -12.32 7 -13 7 C-13 8.98 -13 10.96 -13 13 C-12.34 13.33 -11.68 13.66 -11 14 C-10.67 14.66 -10.34 15.32 -10 16 C-3.94678972 17.15021476 -3.94678972 17.15021476 2 16 C0.9375 17.5 0.9375 17.5 -1 19 C-5.95211375 19.55023486 -9.07769474 19.13784421 -13 16 C-15.11154871 13.40855385 -15.1350172 11.22611429 -14.9375 8 C-14.434744 4.9721661 -13.99218187 3.99022734 -12 1.5 C-7.88971742 -0.55514129 -4.50593723 -0.91259488 0 0 Z " fill="#10285F" transform="translate(731,565)"/>
<path d="M0 0 C2 1 4 2 6 3 C5.52240234 3.83144531 5.52240234 3.83144531 5.03515625 4.6796875 C3.88189663 7.26472982 3.6349243 9.31065364 3.4375 12.125 C3.09722222 16.80555556 3.09722222 16.80555556 2 19 C1.34 18.67 0.68 18.34 0 18 C0.33 17.34 0.66 16.68 1 16 C1.50007794 12.54213985 1.50007794 12.54213985 1 9 C-3.04822528 5.57488054 -7.07898482 5.60100698 -12.14453125 5.70703125 C-12.91431808 5.71127609 -13.68410492 5.71552094 -14.47721863 5.71989441 C-16.92267646 5.73661403 -19.36729357 5.7742523 -21.8125 5.8125 C-23.47589951 5.82755559 -25.13931201 5.84124246 -26.80273438 5.85351562 C-30.86881082 5.88649535 -34.93426313 5.93822994 -39 6 C-37 4 -37 4 -33.56005859 3.77294922 C-32.08948021 3.77326631 -30.61887858 3.78459013 -29.1484375 3.8046875 C-28.37440582 3.8075174 -27.60037415 3.81034729 -26.80288696 3.81326294 C-24.32676843 3.82447246 -21.8510095 3.84957797 -19.375 3.875 C-17.69792188 3.88502882 -16.02083811 3.89415484 -14.34375 3.90234375 C-10.22902777 3.92441426 -6.11457489 3.95894898 -2 4 C-2 3.01 -2 2.02 -2 1 C-1.34 0.67 -0.68 0.34 0 0 Z " fill="#DD2825" transform="translate(250,553)"/>
<path d="M0 0 C1.07356937 3.61109698 0.71059963 4.67942424 -1 8 C-1.03874921 9.66621616 -1.0450286 11.33394172 -1 13 C-1.33 13.33 -1.66 13.66 -2 14 C-2.33 16.31 -2.66 18.62 -3 21 C1.95 20.67 6.9 20.34 12 20 C12 20.99 12 21.98 12 23 C5.4 23 -1.2 23 -8 23 C-5.99307639 14.97230556 -3.3411405 7.56708897 0 0 Z " fill="#1B336E" transform="translate(495,641)"/>
<path d="M0 0 C-1.50240234 0.76183594 -1.50240234 0.76183594 -3.03515625 1.5390625 C-15.62995618 7.46562819 -15.62995618 7.46562819 -24 18 C-24.38749213 20.32495277 -24.72982839 22.65851268 -25 25 C-29.46182436 23.68925635 -32.99618757 21.92933989 -36.875 19.375 C-37.84179688 18.74335938 -38.80859375 18.11171875 -39.8046875 17.4609375 C-40.52914062 16.97882813 -41.25359375 16.49671875 -42 16 C-41.34 15.67 -40.68 15.34 -40 15 C-37.94140625 15.92578125 -37.94140625 15.92578125 -35.5625 17.3125 C-34.38880859 17.98732422 -34.38880859 17.98732422 -33.19140625 18.67578125 C-31.4327276 19.7385122 -29.70972623 20.86018251 -28 22 C-27.72027344 21.34773438 -27.44054687 20.69546875 -27.15234375 20.0234375 C-24.29753434 13.79976941 -21.43839247 10.06665508 -16 6 C-15.0202106 5.08399898 -14.04101722 4.1673599 -13.0625 3.25 C-9.41767074 0.57216626 -4.45980691 -2.22990346 0 0 Z " fill="#0D275D" transform="translate(248,378)"/>
<path d="M0 0 C7.62343616 -0.09272514 15.24681377 -0.16377754 22.87068558 -0.20724869 C26.41090072 -0.22811412 29.95072974 -0.25641126 33.49072266 -0.30175781 C37.56156091 -0.35357738 41.63199427 -0.37295369 45.703125 -0.390625 C47.60798676 -0.42159271 47.60798676 -0.42159271 49.55133057 -0.45318604 C51.32271393 -0.45363922 51.32271393 -0.45363922 53.12988281 -0.45410156 C54.16912903 -0.46298401 55.20837524 -0.47186646 56.27911377 -0.48101807 C59.72083454 0.12743438 60.89803774 1.25539072 63 4 C63.50299316 8.10777749 63.32749345 9.50875983 61 13 C60.34 13 59.68 13 59 13 C59 12.34 59 11.68 59 11 C59.66 11 60.32 11 61 11 C60.71848913 9.68528432 60.42446661 8.37324233 60.125 7.0625 C59.96257812 6.33160156 59.80015625 5.60070312 59.6328125 4.84765625 C59.17038477 2.79299706 59.17038477 2.79299706 57 2 C55.1514292 1.90898388 53.29953621 1.88246854 51.44873047 1.88647461 C50.28767792 1.88655014 49.12662537 1.88662567 47.9303894 1.88670349 C46.04285446 1.89444542 46.04285446 1.89444542 44.1171875 1.90234375 C42.83264679 1.9037587 41.54810608 1.90517365 40.22463989 1.90663147 C36.80843158 1.91045089 33.39226574 1.92027627 29.97607422 1.93133545 C26.49056574 1.94156193 23.0050504 1.94613174 19.51953125 1.95117188 C12.67967005 1.96189904 5.83983706 1.97896858 -1 2 C-0.67 1.34 -0.34 0.68 0 0 Z " fill="#FEE7E5" transform="translate(212,516)"/>
<path d="M0 0 C0.66 0.33 1.32 0.66 2 1 C1.34 1.66 0.68 2.32 0 3 C-0.99 3 -1.98 3 -3 3 C-3.04640625 3.90685547 -3.04640625 3.90685547 -3.09375 4.83203125 C-4 7 -4 7 -6.90625 8.44921875 C-8.0921875 8.85785156 -9.278125 9.26648438 -10.5 9.6875 C-14.54387324 10.82620337 -14.54387324 10.82620337 -18 13 C-18.23192865 14.51469448 -18.41215238 16.03754562 -18.5625 17.5625 C-18.64628906 18.38878906 -18.73007813 19.21507812 -18.81640625 20.06640625 C-18.87699219 20.70449219 -18.93757812 21.34257812 -19 22 C-18.34 22 -17.68 22 -17 22 C-17 22.66 -17 23.32 -17 24 C-17.99 23.67 -18.98 23.34 -20 23 C-21.56935594 19.86128812 -21.35201103 17.46144178 -21 14 C-17.2769369 9.51063654 -12.84271544 6.89275655 -7.8125 4.125 C-6.72678711 3.50238281 -6.72678711 3.50238281 -5.61914062 2.8671875 C-3.78298984 1.84235916 -1.89446445 0.91253892 0 0 Z " fill="#0C2A66" transform="translate(200,356)"/>
<path d="M0 0 C0.33 0 0.66 0 1 0 C1.01981934 0.55872803 1.03963867 1.11745605 1.06005859 1.69311523 C1.1565219 4.27497418 1.26569812 6.85615392 1.375 9.4375 C1.4059375 10.31599609 1.436875 11.19449219 1.46875 12.09960938 C1.79393971 19.44347709 2.35515333 26.52532571 6.1875 32.9375 C6.785625 33.948125 7.38375 34.95875 8 36 C7.67 36.66 7.34 37.32 7 38 C6.02969365 36.65438648 5.07437225 35.29796406 4.125 33.9375 C3.59132813 33.18339844 3.05765625 32.42929687 2.5078125 31.65234375 C-1.16640477 25.18914808 -1.28729707 18.90965664 -1.1875 11.6875 C-1.18685547 10.78193359 -1.18621094 9.87636719 -1.18554688 8.94335938 C-1.14083759 2.28167517 -1.14083759 2.28167517 0 0 Z " fill="#0C2A61" transform="translate(650,479)"/>
<path d="M0 0 C2.64 0 5.28 0 8 0 C6.67638933 2.98526725 5.30369906 4.88252704 2.84765625 7.0234375 C2.23599609 7.57 1.62433594 8.1165625 0.99414062 8.6796875 C-0.28754239 9.80456197 -1.57138074 10.92698567 -2.85742188 12.046875 C-6.59987624 15.39973632 -9.05501237 18.24877559 -11 23 C-11.96070434 20.11788698 -12.10581883 18.30149956 -12.0625 15.3125 C-12.05347656 14.50425781 -12.04445313 13.69601562 -12.03515625 12.86328125 C-12.02355469 12.24839844 -12.01195312 11.63351562 -12 11 C-9.525 11.99 -9.525 11.99 -7 13 C-6.5875 12.195625 -6.175 11.39125 -5.75 10.5625 C-3.73785876 7.61615033 -3.25465952 7.73492312 0 7 C1.28436734 5.0162233 1.28436734 5.0162233 2 3 C1.34 2.01 0.68 1.02 0 0 Z " fill="#052765" transform="translate(348,593)"/>
<path d="M0 0 C0.495 0.99 0.495 0.99 1 2 C0.45214844 1.7834375 -0.09570312 1.566875 -0.66015625 1.34375 C-9.54500582 -1.77678253 -19.82285163 -2.76457921 -28.875 0.3125 C-32.27656942 1.68888114 -32.27656942 1.68888114 -33 5 C-34.98 5.33 -36.96 5.66 -39 6 C-28.17910603 -5.43923077 -13.95970335 -7.0571194 0 0 Z " fill="#112A61" transform="translate(629,595)"/>
<path d="M0 0 C6.93 0 13.86 0 21 0 C26.445 14.85 26.445 14.85 32 30 C31.34 30.33 30.68 30.66 30 31 C29.505 28.525 29.505 28.525 29 26 C28.34 26 27.68 26 27 26 C26.773125 24.783125 26.54625 23.56625 26.3125 22.3125 C25.13602148 16.91100373 23.11177357 11.92647525 21.0234375 6.8203125 C20 4 20 4 20 1 C13.4 1.33 6.8 1.66 0 2 C0 1.34 0 0.68 0 0 Z " fill="#091F57" transform="translate(522,566)"/>
<path d="M0 0 C0.66 0.33 1.32 0.66 2 1 C1.236875 1.825 0.47375 2.65 -0.3125 3.5 C-2.41334557 5.98659405 -3.61440834 8.24257284 -4.6875 11.3125 C-6 15 -6 15 -8 16 C-10.89522008 15.74861862 -13.74607241 15.43872349 -16.625 15.0625 C-17.42679687 14.96259766 -18.22859375 14.86269531 -19.0546875 14.75976562 C-21.03714691 14.5119582 -23.01867009 14.25668193 -25 14 C-25.05422947 12.5629191 -25.09289723 11.12524538 -25.125 9.6875 C-25.14820313 8.88699219 -25.17140625 8.08648438 -25.1953125 7.26171875 C-25 5 -25 5 -23 2 C-23.33 5.63 -23.66 9.26 -24 13 C-18.06 13 -12.12 13 -6 13 C-5.67 10.69 -5.34 8.38 -5 6 C-3.5770017 3.61589466 -1.93469658 2.03391179 0 0 Z " fill="#062967" transform="translate(337,574)"/>
<path d="M0 0 C8.20788839 0.15099926 16.06447214 2.58380069 22.0625 8.375 C21.7325 9.035 21.4025 9.695 21.0625 10.375 C20.546875 9.900625 20.03125 9.42625 19.5 8.9375 C16.39467325 6.94690593 13.69617496 6.72439182 10.0625 6.375 C10.0625 5.715 10.0625 5.055 10.0625 4.375 C4.4525 3.715 -1.1575 3.055 -6.9375 2.375 C-4.42327752 -0.13922248 -3.48672872 0.0500248 0 0 Z " fill="#112F6B" transform="translate(677.9375,590.625)"/>
<path d="M0 0 C0.66 1.32 1.32 2.64 2 4 C1.319375 3.835 0.63875 3.67 -0.0625 3.5 C-7.11704807 2.29922586 -12.09280935 2.98926101 -18 7 C-20.4595774 9.56809828 -20.4595774 9.56809828 -22 12 C-22.375 9.3125 -22.375 9.3125 -22 6 C-19.24990728 2.65529264 -17.57546631 1.31325061 -13.328125 0.46875 C-8.88009637 0.03596884 -4.46636745 -0.02422984 0 0 Z " fill="#113473" transform="translate(612,469)"/>
<path d="M0 0 C-0.99 0.33 -1.98 0.66 -3 1 C-3 1.99 -3 2.98 -3 4 C-3.66 4 -4.32 4 -5 4 C-5.66 5.65 -6.32 7.3 -7 9 C-4.36 11.31 -1.72 13.62 1 16 C0.34 16.33 -0.32 16.66 -1 17 C-9.84819776 9.70706741 -9.84819776 9.70706741 -12 5 C-12 4.34 -12 3.68 -12 3 C-10.3789897 2.30314502 -8.75303934 1.61777139 -7.125 0.9375 C-6.22007812 0.55464844 -5.31515625 0.17179688 -4.3828125 -0.22265625 C-2 -1 -2 -1 0 0 Z " fill="#092966" transform="translate(595,644)"/>
<path d="M0 0 C1.485 0.99 1.485 0.99 3 2 C3.33 3.65 3.66 5.3 4 7 C9.28 7.33 14.56 7.66 20 8 C19.67 6.35 19.34 4.7 19 3 C19.66 3.33 20.32 3.66 21 4 C21.66 5.98 22.32 7.96 23 10 C16.4 10 9.8 10 3 10 C0 3 0 3 0 0 Z " fill="#1A326D" transform="translate(556,654)"/>
<path d="M0 0 C0.66 0 1.32 0 2 0 C4.6289931 5.2579862 4.82141521 10.10811038 3.2421875 15.66796875 C0.71197929 22.57125335 0.71197929 22.57125335 -2.140625 24.2890625 C-2.75421875 24.52367187 -3.3678125 24.75828125 -4 25 C-3.38675022 18.49955237 -3.38675022 18.49955237 -1.5 16.0625 C0 15 0 15 1 15 C1.20589721 7.43592467 1.20589721 7.43592467 0 0 Z " fill="#13336D" transform="translate(636,633)"/>
<path d="M0 0 C3.86465302 1.25032892 6.34373405 3.08966695 9.375 5.7578125 C12.02628619 7.78451685 14.89211928 8.81900533 18 10 C18 10.33 18 10.66 18 11 C11.07 10.505 11.07 10.505 4 10 C4 8.02 4 6.04 4 4 C2.35 3.67 0.7 3.34 -1 3 C-0.67 2.01 -0.34 1.02 0 0 Z " fill="#FC332E" transform="translate(293,676)"/>
<path d="M0 0 C1.32 0.33 2.64 0.66 4 1 C2.65438648 1.97030635 1.29796406 2.92562775 -0.0625 3.875 C-1.19365234 4.67550781 -1.19365234 4.67550781 -2.34765625 5.4921875 C-8.71558169 9.11224526 -14.82666016 9.26559455 -21.9375 9.125 C-22.81212891 9.11597656 -23.68675781 9.10695313 -24.58789062 9.09765625 C-26.72538064 9.0742957 -28.86272786 9.03843247 -31 9 C-31 8.67 -31 8.34 -31 8 C-29.9378125 7.95101562 -28.875625 7.90203125 -27.78125 7.8515625 C-14.51297664 7.23783515 -14.51297664 7.23783515 -2 3 C-1.34 2.01 -0.68 1.02 0 0 Z " fill="#09205D" transform="translate(709,549)"/>
<path d="M0 0 C2.4201303 1.81509772 2.96202116 2.78636901 3.5 5.8125 C2.81478329 10.18075652 1.02113416 11.82780913 -2 15 C-3.32 14.67 -4.64 14.34 -6 14 C-5.375 11.625 -5.375 11.625 -4 9 C-0.875 7.6875 -0.875 7.6875 2 7 C2 6.01 2 5.02 2 4 C1.34 4 0.68 4 0 4 C0 2.68 0 1.36 0 0 Z " fill="#ECF3F8" transform="translate(352,641)"/>
<path d="M0 0 C0.70189453 0.00451172 1.40378906 0.00902344 2.12695312 0.01367188 C3.85550538 0.02543073 5.58401365 0.04336546 7.3125 0.0625 C2.98006526 2.95078982 -1.12971965 2.45284905 -6.2421875 2.62109375 C-9.85133356 3.08349001 -11.67772443 4.12610317 -14.6875 6.0625 C-15.3475 5.7325 -16.0075 5.4025 -16.6875 5.0625 C-10.80454487 1.00979758 -7.04825141 -0.08555301 0 0 Z M-6.6875 3.0625 C-6.3575 3.7225 -6.0275 4.3825 -5.6875 5.0625 C-6.3475 5.7225 -7.0075 6.3825 -7.6875 7.0625 C-8.0175 6.0725 -8.3475 5.0825 -8.6875 4.0625 C-8.0275 3.7325 -7.3675 3.4025 -6.6875 3.0625 Z " fill="#092B63" transform="translate(609.6875,454.9375)"/>
<path d="M0 0 C0 0.66 0 1.32 0 2 C-1.98 2.66 -3.96 3.32 -6 4 C-6 4.66 -6 5.32 -6 6 C-5.34 6.33 -4.68 6.66 -4 7 C-2.42451317 9.62581138 -2 10.87099787 -2 14 C-3.15454162 12.75803878 -4.29832562 11.50607155 -5.4375 10.25 C-6.07558594 9.55390625 -6.71367188 8.8578125 -7.37109375 8.140625 C-8.99081325 6.01207275 -9.58267256 4.60976595 -10 2 C-8.71211992 1.46987262 -7.41953322 0.9511671 -6.125 0.4375 C-5.40570312 0.14746094 -4.68640625 -0.14257812 -3.9453125 -0.44140625 C-2 -1 -2 -1 0 0 Z " fill="#14326A" transform="translate(658,645)"/>
<path d="M0 0 C0.33 0 0.66 0 1 0 C1 2.97 1 5.94 1 9 C2.65 9.33 4.3 9.66 6 10 C5.814375 11.36125 5.814375 11.36125 5.625 12.75 C5.74875 13.8225 5.8725 14.895 6 16 C8.88509913 18.42422186 8.88509913 18.42422186 12 20 C11.34 20.33 10.68 20.66 10 21 C5.03342803 17.90968855 1.87117169 15.61351507 0 10 C-0.06802967 8.27204648 -0.08495645 6.54164635 -0.0625 4.8125 C-0.05347656 3.91144531 -0.04445313 3.01039063 -0.03515625 2.08203125 C-0.02355469 1.39496094 -0.01195312 0.70789063 0 0 Z " fill="#072661" transform="translate(652,609)"/>
<path d="M0 0 C1 2 1 2 0.37915039 4.33837891 C0.03875732 5.29147949 -0.30163574 6.24458008 -0.65234375 7.2265625 C-1.01650391 8.2578125 -1.38066406 9.2890625 -1.75585938 10.3515625 C-2.34077148 11.97191406 -2.34077148 11.97191406 -2.9375 13.625 C-3.32357422 14.71296875 -3.70964844 15.8009375 -4.10742188 16.921875 C-5.06491865 19.61705111 -6.02937173 22.30953089 -7 25 C-7.33 25 -7.66 25 -8 25 C-8.19294408 20.17639811 -7.75747614 16.50353262 -6 12 C-5.34 12 -4.68 12 -4 12 C-3.79503906 11.21753906 -3.59007812 10.43507813 -3.37890625 9.62890625 C-3.10949219 8.61699219 -2.84007812 7.60507812 -2.5625 6.5625 C-2.29566406 5.55316406 -2.02882813 4.54382813 -1.75390625 3.50390625 C-1 1 -1 1 0 0 Z " fill="#0A2A63" transform="translate(529,595)"/>
<path d="M0 0 C2.2477975 2.05233685 3.0022242 3.00667261 4 6 C2.43979133 6.65134925 0.87671421 7.29582964 -0.6875 7.9375 C-1.55761719 8.29714844 -2.42773438 8.65679688 -3.32421875 9.02734375 C-5.88179265 9.9570312 -8.3221323 10.54162625 -11 11 C-11.33 9.02 -11.66 7.04 -12 5 C-11.01 5 -10.02 5 -9 5 C-9 5.66 -9 6.32 -9 7 C-3.555 6.505 -3.555 6.505 2 6 C1.34 4.02 0.68 2.04 0 0 Z " fill="#0A2C65" transform="translate(700,601)"/>
<path d="M0 0 C1.32 0 2.64 0 4 0 C4 0.99 4 1.98 4 3 C4.99 2.67 5.98 2.34 7 2 C7.66 2.66 8.32 3.32 9 4 C8.34 4 7.68 4 7 4 C7 4.66 7 5.32 7 6 C8.175625 6.309375 8.175625 6.309375 9.375 6.625 C12 8 12 8 13.3125 11.125 C13.6528125 12.548125 13.6528125 12.548125 14 14 C9.10565787 9.90473413 4.29279666 5.73642915 0 1 C0 0.67 0 0.34 0 0 Z " fill="#FEDEDA" transform="translate(368,451)"/>
<path d="M0 0 C2.1385485 2.1385485 2.42655063 3.13275314 3 6 C3.66 6 4.32 6 5 6 C5 5.34 5 4.68 5 4 C5.99 4 6.98 4 8 4 C8.33 3.01 8.66 2.02 9 1 C10.65 1.33 12.3 1.66 14 2 C11.725306 4.55263088 9.56797307 5.84144815 6.4375 7.1875 C5.65246094 7.53167969 4.86742187 7.87585938 4.05859375 8.23046875 C2 9 2 9 0 9 C0 6.03 0 3.06 0 0 Z " fill="#10336E" transform="translate(363,395)"/>
<path d="M0 0 C0.66 0.33 1.32 0.66 2 1 C1.4225 1.556875 0.845 2.11375 0.25 2.6875 C-2.07687854 4.98042725 -2.07687854 4.98042725 -4.0625 7.75 C-5.0215625 8.86375 -5.0215625 8.86375 -6 10 C-6.99 10 -7.98 10 -9 10 C-9.66 11.32 -10.32 12.64 -11 14 C-10.68327951 8.77411192 -7.69889181 5.4390165 -4 2 C-1.92578125 0.73046875 -1.92578125 0.73046875 0 0 Z " fill="#0A2B66" transform="translate(664,594)"/>
<path d="M0 0 C0.33 0.66 0.66 1.32 1 2 C0.690625 2.9075 0.38125 3.815 0.0625 4.75 C-1.19122062 7.90740646 -1.19122062 7.90740646 -0.8125 11 C-1.08398705 15.34379279 -3.04080506 16.89284531 -6 20 C-7.4146816 15.75595521 -5.6963296 12.84871797 -4.125 8.875 C-3.84269531 8.13378906 -3.56039063 7.39257812 -3.26953125 6.62890625 C-1.15992374 1.15992374 -1.15992374 1.15992374 0 0 Z " fill="#0C2C68" transform="translate(510,600)"/>
<path d="M0 0 C1.00322648 3.00967944 1.03098357 4.4240277 0.6875 7.5 C0.60886719 8.2734375 0.53023437 9.046875 0.44921875 9.84375 C0 12 0 12 -2 15 C-2.66 15 -3.32 15 -4 15 C-4.66 17.31 -5.32 19.62 -6 22 C-7.13702419 18.66472903 -6.88480118 16.91003798 -5.56640625 13.671875 C-5.24736328 12.87265625 -4.92832031 12.0734375 -4.59960938 11.25 C-4.25736328 10.425 -3.91511719 9.6 -3.5625 8.75 C-3.22412109 7.90953125 -2.88574219 7.0690625 -2.53710938 6.203125 C-1.70126562 4.13117428 -0.85533351 2.06396385 0 0 Z " fill="#0C2962" transform="translate(518,577)"/>
<path d="M0 0 C6.46484402 0.83315282 11.84379682 4.41659324 17.125 8.0625 C17.125 8.3925 17.125 8.7225 17.125 9.0625 C14.8125 9.25 14.8125 9.25 12.125 9.0625 C10.4375 7.5625 10.4375 7.5625 9.125 6.0625 C8.465 6.0625 7.805 6.0625 7.125 6.0625 C7.125 5.4025 7.125 4.7425 7.125 4.0625 C0.72284929 2.3130382 0.72284929 2.3130382 -5.875 2.0625 C-3.875 0.0625 -3.875 0.0625 0 0 Z " fill="#0D2863" transform="translate(293.875,305.9375)"/>
<path d="M0 0 C1.07356937 3.61109698 0.71059963 4.67942424 -1 8 C-1.03874921 9.66621616 -1.0450286 11.33394172 -1 13 C-1.33 13.33 -1.66 13.66 -2 14 C-2.36760731 16.32817964 -2.70241581 18.6618385 -3 21 C-3.99 21 -4.98 21 -6 21 C-5.60983685 13.19673706 -3.24226342 7.07076635 0 0 Z " fill="#0E3171" transform="translate(495,641)"/>
<path d="M0 0 C2 2 2 2 2 5 C2.99 5.33 3.98 5.66 5 6 C6.52160014 9.6037898 7 12.05220686 7 16 C6.34 16 5.68 16 5 16 C2.01571771 12.89634642 1.50381536 10.19846133 1 6 C0.814375 4.88625 0.62875 3.7725 0.4375 2.625 C0.293125 1.75875 0.14875 0.8925 0 0 Z " fill="#0B3172" transform="translate(550,592)"/>
<path d="M0 0 C4.87939176 1.39411193 7.10832229 3.90345657 10 8 C10.8125 10.875 10.8125 10.875 11 13 C9.68 12.67 8.36 12.34 7 12 C7.66 12 8.32 12 9 12 C8.34 10.35 7.68 8.7 7 7 C5.68 7 4.36 7 3 7 C2.01 4.69 1.02 2.38 0 0 Z " fill="#0A2663" transform="translate(790,595)"/>
<path d="M0 0 C1.051875 0.433125 1.051875 0.433125 2.125 0.875 C7.82756125 3.10643701 12.92744415 4.37180457 19 5 C19 5.66 19 6.32 19 7 C19.99 7 20.98 7 22 7 C22 7.66 22 8.32 22 9 C14.46083025 7.48297194 7.64451514 5.96115326 1 2 C0.67 1.34 0.34 0.68 0 0 Z " fill="#122B63" transform="translate(755,626)"/>
<path d="M0 0 C0.33 0 0.66 0 1 0 C1.58649772 5.74767763 0.44653506 10.43119009 -1.375 15.875 C-1.59631592 16.54152588 -1.81763184 17.20805176 -2.0456543 17.89477539 C-3.05829106 20.80187902 -3.79664075 22.79664075 -6 25 C-5.20873786 20.69799225 -3.9770124 16.6520954 -2.62109375 12.5 C-1.97620532 9.90422269 -1.89060806 7.66345604 -2 5 C-1.34 5 -0.68 5 0 5 C0 3.35 0 1.7 0 0 Z " fill="#08215C" transform="translate(415,611)"/>
<path d="M0 0 C0.85078125 0.00322266 1.7015625 0.00644531 2.578125 0.00976562 C3.46757813 0.01814453 4.35703125 0.02652344 5.2734375 0.03515625 C6.170625 0.03966797 7.0678125 0.04417969 7.9921875 0.04882812 C10.21100398 0.06063034 12.42968768 0.0770947 14.6484375 0.09765625 C14.6484375 0.42765625 14.6484375 0.75765625 14.6484375 1.09765625 C13.23691406 1.18853516 13.23691406 1.18853516 11.796875 1.28125 C10.55164063 1.36503906 9.30640625 1.44882812 8.0234375 1.53515625 C6.79367187 1.61636719 5.56390625 1.69757812 4.296875 1.78125 C1.03311362 2.06429569 -2.13100109 2.50804578 -5.3515625 3.09765625 C-5.6815625 4.74765625 -6.0115625 6.39765625 -6.3515625 8.09765625 C-7.28579895 5.08733881 -7.39606161 4.23115357 -6.3515625 1.09765625 C-4.00303722 -0.07660639 -2.61382185 -0.01742548 0 0 Z " fill="#0A3072" transform="translate(527.3515625,566.90234375)"/>
<path d="M0 0 C0.99 0.33 1.98 0.66 3 1 C2.34 1 1.68 1 1 1 C0.773125 1.70125 0.54625 2.4025 0.3125 3.125 C-1.31656867 6.69343613 -3.40640731 9.06514511 -6 12 C-6.99 11.67 -7.98 11.34 -9 11 C-9.33 10.01 -9.66 9.02 -10 8 C-9.0925 7.608125 -8.185 7.21625 -7.25 6.8125 C-3.85881606 4.9212628 -2.20967163 3.1445327 0 0 Z " fill="#ECF5FC" transform="translate(408,449)"/>
<path d="M0 0 C5.96652354 1.57013777 10.82909025 4.75029782 16 8 C15.01 8.495 15.01 8.495 14 9 C13.34 8.67 12.68 8.34 12 8 C11.67 8.99 11.34 9.98 11 11 C9 9 9 9 8.3125 7.125 C6.28084337 3.83565118 3.40315602 2.76459942 0 1 C0 0.67 0 0.34 0 0 Z " fill="#0B2C67" transform="translate(343,333)"/>
<path d="M0 0 C0.33 0 0.66 0 1 0 C1.03738281 1.05058594 1.07476563 2.10117187 1.11328125 3.18359375 C1.45493759 10.96113653 2.00662248 17.71177647 5 25 C1.35148756 21.72569397 -0.45780707 19.87973641 -1 15 C-0.91560937 12.37300129 -0.78016146 9.80193936 -0.5625 7.1875 C-0.51029297 6.49462891 -0.45808594 5.80175781 -0.40429688 5.08789062 C-0.27560181 3.39145563 -0.13863816 1.69565137 0 0 Z " fill="#0E326E" transform="translate(822,633)"/>
<path d="M0 0 C5.96652354 1.57013777 10.82909025 4.75029782 16 8 C13.45297384 9.27351308 12.5717055 8.80191925 9.875 8.0625 C9.15054687 7.86785156 8.42609375 7.67320312 7.6796875 7.47265625 C7.12539063 7.31667969 6.57109375 7.16070312 6 7 C6 6.34 6 5.68 6 5 C3.88214887 3.88214887 3.88214887 3.88214887 1 3 C0.67 2.01 0.34 1.02 0 0 Z " fill="#0E2D66" transform="translate(327,324)"/>
<path d="M0 0 C1.010625 0.350625 2.02125 0.70125 3.0625 1.0625 C6.92337378 2.1892448 10.05394586 1.80531717 14 1 C13 4 13 4 11 6 C6.83554533 5.90745656 5.27137545 5.24187812 2.125 2.4375 C1.42375 1.633125 0.7225 0.82875 0 0 Z " fill="#073069" transform="translate(753,657)"/>
<path d="M0 0 C2 1.125 2 1.125 4 3 C4.5 5.9375 4.5 5.9375 4 9 C2.25 11.4375 2.25 11.4375 0 13 C-2.25 12.75 -2.25 12.75 -4 12 C-2.68 11.67 -1.36 11.34 0 11 C0.144375 10.38125 0.28875 9.7625 0.4375 9.125 C1 7 1 7 2 5 C1.10636395 2.39068734 1.10636395 2.39068734 0 0 Z " fill="#FEE0DE" transform="translate(303,474)"/>
<path d="M0 0 C1.010625 0.33 2.02125 0.66 3.0625 1 C6.75479911 2.07001321 10.15248207 2.15704155 14 2 C14.33 2.99 14.66 3.98 15 5 C15.66 5.33 16.32 5.66 17 6 C10.37822074 5.69343615 5.77874846 4.25711277 0 1 C0 0.67 0 0.34 0 0 Z " fill="#0C2B64" transform="translate(593,627)"/>
<path d="M0 0 C0.33 0 0.66 0 1 0 C1 4.62 1 9.24 1 14 C0.01 14 -0.98 14 -2 14 C-2 12.02 -2 10.04 -2 8 C-1.34 8 -0.68 8 0 8 C0 6.35 0 4.7 0 3 C-1.98 3 -3.96 3 -6 3 C-6 2.67 -6 2.34 -6 2 C-4.02 2 -2.04 2 0 2 C0 1.34 0 0.68 0 0 Z " fill="#0E3C7E" transform="translate(852,648)"/>
<path d="M0 0 C0.66 0.66 1.32 1.32 2 2 C1.67 2.66 1.34 3.32 1 4 C1.66 4 2.32 4 3 4 C3 6.31 3 8.62 3 11 C2.01 11.495 2.01 11.495 1 12 C0.731875 10.741875 0.46375 9.48375 0.1875 8.1875 C-0.59532537 5.00551199 -1.25335928 2.99755689 -4 1 C-2.125 0.375 -2.125 0.375 0 0 Z " fill="#0B316A" transform="translate(622,634)"/>
<path d="M0 0 C-0.639375 0.45375 -1.27875 0.9075 -1.9375 1.375 C-4.09702406 2.83921726 -4.09702406 2.83921726 -5 5 C-7.31 5 -9.62 5 -12 5 C-12 4.34 -12 3.68 -12 3 C-7.84850771 0.11701924 -4.90549313 -1.63516438 0 0 Z " fill="#0D3575" transform="translate(834,575)"/>
<path d="M0 0 C0.66 0.33 1.32 0.66 2 1 C0.68 1.33 -0.64 1.66 -2 2 C-2 2.99 -2 3.98 -2 5 C-1.01 5.66 -0.02 6.32 1 7 C1.6875 9.625 1.6875 9.625 2 12 C-2.21422242 9.11658466 -3.76075855 6.95696581 -5 2 C-2.625 0.9375 -2.625 0.9375 0 0 Z " fill="#0A255D" transform="translate(751,645)"/>
<path d="M0 0 C2.475 0.99 2.475 0.99 5 2 C5.1953125 4.05078125 5.390625 6.1015625 5.5859375 8.15234375 C5.72257813 8.76207031 5.85921875 9.37179687 6 10 C6.66 10.33 7.32 10.66 8 11 C6.35 12.32 4.7 13.64 3 15 C2.34 14.67 1.68 14.34 1 14 C1.99 13.01 2.98 12.02 4 11 C3.67 10.34 3.34 9.68 3 9 C3.04125 8.21625 3.0825 7.4325 3.125 6.625 C2.97523697 3.47997646 2.05570254 2.31266536 0 0 Z " fill="#0E3473" transform="translate(685,636)"/>
<path d="M0 0 C6.4652248 0.96260014 10.29385826 2.41452857 15 7 C14.67 7.66 14.34 8.32 14 9 C10.125 6.25 10.125 6.25 9 4 C8.443125 4.268125 7.88625 4.53625 7.3125 4.8125 C6.549375 4.874375 5.78625 4.93625 5 5 C2.25 2.5625 2.25 2.5625 0 0 Z " fill="#09245E" transform="translate(621,623)"/>
<path d="M0 0 C5.75 1.875 5.75 1.875 8 3 C8 4.98 8 6.96 8 9 C7.01 9.33 6.02 9.66 5 10 C5 8.33333333 5 6.66666667 5 5 C4.34 5 3.68 5 3 5 C3 4.01 3 3.02 3 2 C2.01 1.67 1.02 1.34 0 1 C0 0.67 0 0.34 0 0 Z " fill="#0C3577" transform="translate(397,363)"/>
<path d="M0 0 C5.17930997 1.24303439 8.70166639 2.85487785 13 6 C11 7 11 7 8.90625 6.328125 C8.1121875 5.97234375 7.318125 5.6165625 6.5 5.25 C5.7059375 4.90453125 4.911875 4.5590625 4.09375 4.203125 C2 3 2 3 0 0 Z " fill="#0A3273" transform="translate(299,660)"/>
<path d="M0 0 C0.99 0.33 1.98 0.66 3 1 C3.80078125 2.9609375 3.80078125 2.9609375 4.3125 5.375 C4.49425781 6.16648437 4.67601562 6.95796875 4.86328125 7.7734375 C5 10 5 10 3 13 C2.49242138 11.58603098 1.99425075 10.16868271 1.5 8.75 C1.08234375 7.56664062 1.08234375 7.56664062 0.65625 6.359375 C0 4 0 4 0 0 Z " fill="#103373" transform="translate(411,579)"/>
<path d="M0 0 C2.91316254 1.45658127 3.09207774 3.36160014 4.1875 6.375 C4.55230469 7.35210938 4.91710937 8.32921875 5.29296875 9.3359375 C6 12 6 12 5 15 C4.731875 13.865625 4.46375 12.73125 4.1875 11.5625 C3.795625 10.386875 3.40375 9.21125 3 8 C2.01 7.67 1.02 7.34 0 7 C0 4.69 0 2.38 0 0 Z " fill="#0B2965" transform="translate(561,619)"/>
<path d="M0 0 C0.6875 1.75 0.6875 1.75 1 4 C-0.3125 6.25 -0.3125 6.25 -2 8 C-2.66 8 -3.32 8 -4 8 C-4.66 9.32 -5.32 10.64 -6 12 C-5.43958106 7.23643901 -3.41302403 3.41302403 0 0 Z " fill="#062764" transform="translate(657,466)"/>
<path d="M0 0 C0.33 0.99 0.66 1.98 1 3 C-0.8125 4.5625 -0.8125 4.5625 -3 6 C-3.99 5.67 -4.98 5.34 -6 5 C-6.6875 2.9375 -6.6875 2.9375 -7 1 C-4.53721199 -0.231394 -2.7204945 -0.07159196 0 0 Z " fill="#053471" transform="translate(677,456)"/>
<path d="M0 0 C0.99 0 1.98 0 3 0 C3 0.99 3 1.98 3 3 C4.65 3.33 6.3 3.66 8 4 C8 7 8 7 7 11 C4.69 7.37 2.38 3.74 0 0 Z " fill="#FEE6E5" transform="translate(267,646)"/>
<path d="M0 0 C0.99 0.33 1.98 0.66 3 1 C2.67 2.32 2.34 3.64 2 5 C0.02 5.33 -1.96 5.66 -4 6 C-2.25 1.125 -2.25 1.125 0 0 Z " fill="#033E89" transform="translate(759,597)"/>
<path d="M0 0 C0.99 0.33 1.98 0.66 3 1 C-6.71428571 9 -6.71428571 9 -10 9 C-10 8.34 -10 7.68 -10 7 C-8.06640625 5.52734375 -8.06640625 5.52734375 -5.5625 3.9375 C-2.6281857 2.16321108 -2.6281857 2.16321108 0 0 Z " fill="#EFF8FC" transform="translate(714,548)"/>
<path d="M0 0 C3.3 0 6.6 0 10 0 C6.6325319 1.68373405 3.84984234 2.68218415 0.25 3.625 C-0.73484375 3.88539063 -1.7196875 4.14578125 -2.734375 4.4140625 C-3.85585937 4.70410156 -3.85585937 4.70410156 -5 5 C-4.67 3.68 -4.34 2.36 -4 1 C-2.02 1.495 -2.02 1.495 0 2 C0 1.34 0 0.68 0 0 Z " fill="#FEE6E6" transform="translate(186,435)"/>
<path d="M0 0 C0.66 0.33 1.32 0.66 2 1 C-4.07439825 6.88183807 -4.07439825 6.88183807 -7.9375 7.375 C-8.618125 7.25125 -9.29875 7.1275 -10 7 C-7.20283196 3.70921407 -3.80471422 1.93694542 0 0 Z " fill="#0B2A67" transform="translate(255,325)"/>
<path d="M0 0 C2.64 0.33 5.28 0.66 8 1 C8 1.66 8 2.32 8 3 C8.99 3.33 9.98 3.66 11 4 C11.6875 6.0625 11.6875 6.0625 12 8 C8.56738012 6.79394437 6.45171109 5.66490336 4 3 C2.68036291 1.98199424 1.34990354 0.97751635 0 0 Z " fill="#143C7B" transform="translate(381,665)"/>
<path d="M0 0 C0.33 0.66 0.66 1.32 1 2 C-1.36442242 6.60440155 -3.96472129 11.32157376 -9 13 C-7.50923566 9.7173068 -5.61379679 7.06922559 -3.375 4.25 C-2.74335938 3.45078125 -2.11171875 2.6515625 -1.4609375 1.828125 C-0.97882813 1.22484375 -0.49671875 0.6215625 0 0 Z " fill="#FEE2E1" transform="translate(281,543)"/>
<path d="M0 0 C0.66 0.33 1.32 0.66 2 1 C1.236875 1.9075 0.47375 2.815 -0.3125 3.75 C-2.28483107 6.114556 -4.18262034 8.51305942 -6 11 C-5.67 9.35 -5.34 7.7 -5 6 C-5.66 5.67 -6.32 5.34 -7 5 C-6.67 4.01 -6.34 3.02 -6 2 C-5.01 2.33 -4.02 2.66 -3 3 C-2.01 2.01 -1.02 1.02 0 0 Z " fill="#062866" transform="translate(672,474)"/>
<path d="M0 0 C6.75 0.75 6.75 0.75 9 3 C9.39764263 4.98821313 9.73775349 6.98944339 10 9 C8.8944811 8.06409496 7.79064547 7.12620142 6.6875 6.1875 C6.07261719 5.66542969 5.45773437 5.14335937 4.82421875 4.60546875 C3.14575321 3.12827531 1.56117966 1.59960869 0 0 Z " fill="#0D2D6D" transform="translate(694,471)"/>
<path d="M0 0 C-0.969375 0.53625 -1.93875 1.0725 -2.9375 1.625 C-6.27535611 3.72005826 -6.27535611 3.72005826 -6.875 7.25 C-6.91625 8.1575 -6.9575 9.065 -7 10 C-8.80411967 7.24075815 -9.0127245 6.11027897 -8.625 2.75 C-8.41875 1.8425 -8.2125 0.935 -8 0 C-4.71303767 -0.79953138 -3.28976808 -1.09658936 0 0 Z " fill="#0D2C68" transform="translate(675,606)"/>
<path d="M0 0 C3.44216672 2.6598561 3.99504674 5.90288286 5 10 C4.34 10.66 3.68 11.32 3 12 C1.82923301 8.01939223 0.74250597 4.08378283 0 0 Z " fill="#112F6D" transform="translate(631,464)"/>
<path d="M0 0 C0.66 1.32 1.32 2.64 2 4 C-2.62 3.34 -7.24 2.68 -12 2 C-12 1.67 -12 1.34 -12 1 C-7.95858806 0.36605303 -4.0934693 -0.12404452 0 0 Z " fill="#092764" transform="translate(612,469)"/>
<path d="M0 0 C1.32 1.32 2.64 2.64 4 4 C3.01 6.64 2.02 9.28 1 12 C0.03929566 9.11788698 -0.10581883 7.30149956 -0.0625 4.3125 C-0.05347656 3.50425781 -0.04445313 2.69601562 -0.03515625 1.86328125 C-0.02355469 1.24839844 -0.01195312 0.63351562 0 0 Z " fill="#073374" transform="translate(336,604)"/>
<path d="M0 0 C0.99 0.33 1.98 0.66 3 1 C3 3.97 3 6.94 3 10 C2.01 9.67 1.02 9.34 0 9 C0 6.03 0 3.06 0 0 Z " fill="#0F3270" transform="translate(375,579)"/>
<path d="M0 0 C1.32 0 2.64 0 4 0 C4 0.99 4 1.98 4 3 C5.32 2.67 6.64 2.34 8 2 C8 3.98 8 5.96 8 8 C6.85073734 7.04578192 5.70569459 6.08647955 4.5625 5.125 C3.92441406 4.59132813 3.28632813 4.05765625 2.62890625 3.5078125 C1 2 1 2 0 0 Z " fill="#FCD5D4" transform="translate(407,490)"/>
<path d="M0 0 C0.33 0 0.66 0 1 0 C1 3.63 1 7.26 1 11 C-0.98 11.99 -0.98 11.99 -3 13 C-2.85691406 12.43796875 -2.71382813 11.8759375 -2.56640625 11.296875 C-1.98879098 8.95454547 -1.45716693 6.60582341 -0.9375 4.25 C-0.76089844 3.45078125 -0.58429688 2.6515625 -0.40234375 1.828125 C-0.26957031 1.22484375 -0.13679688 0.6215625 0 0 Z " fill="#EAF3F9" transform="translate(387,419)"/>
<path d="M0 0 C0.66 0.66 1.32 1.32 2 2 C1.625 4.625 1.625 4.625 1 7 C-0.98 5.35 -2.96 3.7 -5 2 C-4.34 1.67 -3.68 1.34 -3 1 C-2.01 1.33 -1.02 1.66 0 2 C0 1.34 0 0.68 0 0 Z " fill="#093073" transform="translate(361,385)"/>
<path d="M0 0 C0.886875 0.12375 1.77375 0.2475 2.6875 0.375 C-0.8212188 3.47092835 -3.80447399 5.11694623 -8.3125 6.375 C-4.12788462 0.46730769 -4.12788462 0.46730769 0 0 Z " fill="#E8F3FA" transform="translate(268.3125,315.625)"/>
<path d="M0 0 C3.3 0 6.6 0 10 0 C10 0.99 10 1.98 10 3 C3.375 2.25 3.375 2.25 0 0 Z " fill="#EBF2FB" transform="translate(604,665)"/>
<path d="M0 0 C2.97 0 5.94 0 9 0 C9.33 0.99 9.66 1.98 10 3 C6.7 2.67 3.4 2.34 0 2 C0 1.34 0 0.68 0 0 Z " fill="#0C2D68" transform="translate(340,571)"/>
<path d="M0 0 C0.33 0.66 0.66 1.32 1 2 C-1.64 4.31 -4.28 6.62 -7 9 C-7.66 8.34 -8.32 7.68 -9 7 C-7.87720538 6.01830524 -6.75168527 5.03972702 -5.625 4.0625 C-4.68527344 3.24458984 -4.68527344 3.24458984 -3.7265625 2.41015625 C-2 1 -2 1 0 0 Z " fill="#EAF5FB" transform="translate(331,557)"/>
<path d="M0 0 C0 0.66 0 1.32 0 2 C-3.63 2 -7.26 2 -11 2 C-8.70961481 -2.58077038 -4.27972864 -0.62125093 0 0 Z " fill="#143D82" transform="translate(347,636)"/>
<path d="M0 0 C0.99 1.32 1.98 2.64 3 4 C1.71937515 5.7074998 0.38232443 7.37373596 -1 9 C-1.66 9 -2.32 9 -3 9 C-2.01 6.03 -1.02 3.06 0 0 Z " fill="#FEE5E6" transform="translate(265,566)"/>
<path d="M0 0 C0.66 0.99 1.32 1.98 2 3 C2.66 3.33 3.32 3.66 4 4 C3.34 5.65 2.68 7.3 2 9 C0.68 9 -0.64 9 -2 9 C-1.34 6.03 -0.68 3.06 0 0 Z " fill="#E42C2E" transform="translate(307,477)"/>
<path d="M0 0 C1.98 0.99 1.98 0.99 4 2 C4 2.66 4 3.32 4 4 C5.32 4.33 6.64 4.66 8 5 C7.67 6.32 7.34 7.64 7 9 C6.67 8.34 6.34 7.68 6 7 C5.34 7 4.68 7 4 7 C2.02 3.535 2.02 3.535 0 0 Z " fill="#0C2E6E" transform="translate(614,473)"/>
<path d="M0 0 C2 2 2 2 2.4375 4.0625 C2.7159375 5.0215625 2.7159375 5.0215625 3 6 C3.99 6.33 4.98 6.66 6 7 C4.02 7.66 2.04 8.32 0 9 C0 6.03 0 3.06 0 0 Z " fill="#0B2356" transform="translate(363,395)"/>
<path d="M0 0 C1.98 0.495 1.98 0.495 4 1 C3.1875 3.4375 3.1875 3.4375 2 6 C1.01 6.33 0.02 6.66 -1 7 C-0.67 4.69 -0.34 2.38 0 0 Z " fill="#082F6B" transform="translate(796,651)"/>
<path d="M0 0 C0.99 0.495 0.99 0.495 2 1 C2 1.66 2 2.32 2 3 C2.99 3.33 3.98 3.66 5 4 C5.6875 6.0625 5.6875 6.0625 6 8 C4.68 7.67 3.36 7.34 2 7 C1.34 4.69 0.68 2.38 0 0 Z " fill="#103169" transform="translate(277,630)"/>
<path d="M0 0 C0.66 0 1.32 0 2 0 C2 0.66 2 1.32 2 2 C2.66 2 3.32 2 4 2 C4.144375 2.78375 4.28875 3.5675 4.4375 4.375 C4.87798925 6.96421018 4.87798925 6.96421018 6 9 C3.5067466 8.00269864 2.22532561 7.34925469 0.75 5.0625 C0 3 0 3 0 0 Z " fill="#0A2863" transform="translate(587,618)"/>
<path d="M0 0 C6.625 -0.25 6.625 -0.25 10 2 C3.375 3.125 3.375 3.125 0 2 C0 1.34 0 0.68 0 0 Z " fill="#113574" transform="translate(672,555)"/>
<path d="M0 0 C1.98 0.495 1.98 0.495 4 1 C2.68 3.64 1.36 6.28 0 9 C-1.53445094 5.93109813 -0.54984289 3.29905734 0 0 Z " fill="#112F6B" transform="translate(717,536)"/>
<path d="M0 0 C0.6875 1.8125 0.6875 1.8125 1 4 C-0.86245982 6.54862922 -3.15616877 7.7251791 -6 9 C-4.47291037 5.56404834 -2.40072955 2.88087546 0 0 Z " fill="#DBE8F2" transform="translate(702,653)"/>
<path d="M0 0 C0.99 0.33 1.98 0.66 3 1 C1.02 1.99 1.02 1.99 -1 3 C-1 3.66 -1 4.32 -1 5 C-3.97 4.505 -3.97 4.505 -7 4 C-6.1028125 3.566875 -6.1028125 3.566875 -5.1875 3.125 C-2.80672208 1.95257974 -2.80672208 1.95257974 0 0 Z " fill="#F1F6F5" transform="translate(787,618)"/>
<path d="M0 0 C1.98 0.495 1.98 0.495 4 1 C1.25 5.875 1.25 5.875 -1 7 C-0.67 4.69 -0.34 2.38 0 0 Z " fill="#194081" transform="translate(322,558)"/>
<path d="M0 0 C0.33 0 0.66 0 1 0 C1.33 1.98 1.66 3.96 2 6 C1.34 6 0.68 6 0 6 C0 6.66 0 7.32 0 8 C0.66 8 1.32 8 2 8 C1.67 8.66 1.34 9.32 1 10 C-0.32 10.33 -1.64 10.66 -3 11 C-2.01 7.37 -1.02 3.74 0 0 Z " fill="#E2EDF6" transform="translate(721,532)"/>
<path d="M0 0 C0.99 1.32 1.98 2.64 3 4 C1.35 5.32 -0.3 6.64 -2 8 C-2.125 5.125 -2.125 5.125 -2 2 C-1.34 1.34 -0.68 0.68 0 0 Z " fill="#E72F29" transform="translate(282,536)"/>
<path d="M0 0 C2.0625 0.4375 2.0625 0.4375 4 1 C2.71034824 2.37562854 1.37310707 3.70766393 0 5 C-0.66 5 -1.32 5 -2 5 C-1.125 1.125 -1.125 1.125 0 0 Z " fill="#0F3172" transform="translate(700,520)"/>
<path d="M0 0 C2.97 0.495 2.97 0.495 6 1 C4.35830472 3.02054804 2.69088222 5.02043058 1 7 C0.67 7 0.34 7 0 7 C0 4.69 0 2.38 0 0 Z " fill="#E4EDF9" transform="translate(589,457)"/>
<path d="M0 0 C4.67461851 -0.32613618 7.16674383 0.29417212 11 3 C9 4 9 4 6.8359375 3.44140625 C6.02382813 3.15136719 5.21171875 2.86132812 4.375 2.5625 C3.55773437 2.27503906 2.74046875 1.98757813 1.8984375 1.69140625 C1.27195312 1.46324219 0.64546875 1.23507812 0 1 C0 0.67 0 0.34 0 0 Z " fill="#FDE1DF" transform="translate(344,435)"/>
<path d="M0 0 C1.33333333 0.66666667 2.66666667 1.33333333 4 2 C5.0828125 2.433125 5.0828125 2.433125 6.1875 2.875 C8 4 8 4 8.61328125 6.0703125 C8.74089844 6.70710937 8.86851562 7.34390625 9 8 C7.68388323 7.04663979 6.37221039 6.08714226 5.0625 5.125 C4.33160156 4.59132813 3.60070312 4.05765625 2.84765625 3.5078125 C1 2 1 2 0 0 Z " fill="#FDE0DC" transform="translate(285,668)"/>
<path d="M0 0 C-4.455 1.485 -4.455 1.485 -9 3 C-8.67 1.68 -8.34 0.36 -8 -1 C-4.23350139 -2.34517808 -3.97399267 -1.98699633 0 0 Z " fill="#E1EEF6" transform="translate(759,643)"/>
<path d="M0 0 C1.32 0.66 2.64 1.32 4 2 C4 2.99 4 3.98 4 5 C3.01 5.33 2.02 5.66 1 6 C1 5.34 1 4.68 1 4 C0.34 4 -0.32 4 -1 4 C-0.67 2.68 -0.34 1.36 0 0 Z " fill="#F0F5F5" transform="translate(586,640)"/>
<path d="M0 0 C0.66 0.33 1.32 0.66 2 1 C1.67 3.31 1.34 5.62 1 8 C0.34 8 -0.32 8 -1 8 C-1.04241723 5.66705225 -1.04092937 3.33297433 -1 1 C-0.67 0.67 -0.34 0.34 0 0 Z " fill="#0E3372" transform="translate(530,587)"/>
<path d="M0 0 C0 0.99 0 1.98 0 3 C-2.31 3.33 -4.62 3.66 -7 4 C-7 3.34 -7 2.68 -7 2 C-4.69 1.34 -2.38 0.68 0 0 Z " fill="#E9F6FB" transform="translate(834,571)"/>
<path d="M0 0 C0.99 0.33 1.98 0.66 3 1 C1.625 3.5 1.625 3.5 0 6 C-0.66 6 -1.32 6 -2 6 C-2.33 5.01 -2.66 4.02 -3 3 C-2.01 2.01 -1.02 1.02 0 0 Z " fill="#133075" transform="translate(720,566)"/>
<path d="M0 0 C2.31 0.33 4.62 0.66 7 1 C7 1.99 7 2.98 7 4 C3.73045798 3.43628586 2.17424117 2.50037734 0 0 Z " fill="#0C3271" transform="translate(201,390)"/>
<path d="M0 0 C0.33 0.66 0.66 1.32 1 2 C3.52733235 2.65555119 3.52733235 2.65555119 6 3 C6.33 3.99 6.66 4.98 7 6 C1.25 4.25 1.25 4.25 -1 2 C-0.67 1.34 -0.34 0.68 0 0 Z " fill="#E7F3F9" transform="translate(371,345)"/>
<path d="M0 0 C0.33 0.66 0.66 1.32 1 2 C1.66 2.33 2.32 2.66 3 3 C-0.3 3.66 -3.6 4.32 -7 5 C-4.49183541 2.49183541 -3.09162264 1.38589981 0 0 Z " fill="#07275F" transform="translate(243,332)"/>
<path d="M0 0 C3.64553172 1.2808625 5.16671013 2.16671013 8 5 C3.545 4.01 3.545 4.01 -1 3 C-0.67 2.01 -0.34 1.02 0 0 Z " fill="#DD2C25" transform="translate(293,676)"/>
<path d="M0 0 C0 0.66 0 1.32 0 2 C-4.47058824 6 -4.47058824 6 -7 6 C-5.52522876 2.59668175 -4.14385429 0 0 0 Z " fill="#DDEAF6" transform="translate(772,606)"/>
<path d="M0 0 C0.33 0 0.66 0 1 0 C1.33 3.96 1.66 7.92 2 12 C-0.40501922 8.39247116 -1.24602334 6.54643242 -0.5625 2.25 C-0.376875 1.5075 -0.19125 0.765 0 0 Z " fill="#C3D1E4" transform="translate(374,576)"/>
<path d="M0 0 C0.66 0.99 1.32 1.98 2 3 C1.01 3.66 0.02 4.32 -1 5 C-1.33 5.99 -1.66 6.98 -2 8 C-2.66 8 -3.32 8 -4 8 C-2.25 2.25 -2.25 2.25 0 0 Z " fill="#0A2866" transform="translate(285,563)"/>
<path d="M0 0 C0.66 0.33 1.32 0.66 2 1 C1.35455571 4.48539917 -0.10134397 7.02819057 -2 10 C-3 8 -3 8 -2.44140625 6.0546875 C-2.15136719 5.33539062 -1.86132812 4.61609375 -1.5625 3.875 C-1.27503906 3.15054688 -0.98757813 2.42609375 -0.69140625 1.6796875 C-0.46324219 1.12539063 -0.23507812 0.57109375 0 0 Z " fill="#EFFAFC" transform="translate(718,563)"/>
<path d="M0 0 C-1.98 1.32 -3.96 2.64 -6 4 C-6.99 3.34 -7.98 2.68 -9 2 C-3.375 -1.125 -3.375 -1.125 0 0 Z " fill="#DCEAF3" transform="translate(245,381)"/>
</svg>
