<?xml version="1.0" encoding="UTF-8"?>
<svg version="1.1" xmlns="http://www.w3.org/2000/svg" width="315" height="415">
<path d="M0 0 C103.95 0 207.9 0 315 0 C315 136.95 315 273.9 315 415 C211.05 415 107.1 415 0 415 C0 278.05 0 141.1 0 0 Z " fill="#FCFCFC" transform="translate(0,0)"/>
<path d="M0 0 C0.66595548 -0.00538554 1.33191096 -0.01077108 2.01804692 -0.01631981 C4.23040943 -0.03052915 6.44216764 -0.02351355 8.65455627 -0.01637268 C10.24850441 -0.02207995 11.84244846 -0.02904559 13.43638611 -0.03717041 C17.75254599 -0.05507746 22.0685023 -0.0539381 26.38468814 -0.04822803 C29.99299675 -0.04513266 33.60126645 -0.05123248 37.20956951 -0.05726677 C45.7243052 -0.07130229 54.23894053 -0.06975878 62.75367737 -0.05836487 C71.52711462 -0.04688395 80.30024617 -0.06096105 89.07364315 -0.08776134 C96.61696853 -0.10993822 104.16019808 -0.11655126 111.70355374 -0.11068493 C116.20415098 -0.10731898 120.70455228 -0.10970633 125.20512199 -0.12693596 C129.43813718 -0.14243483 133.67070044 -0.13841718 137.90369797 -0.11963081 C139.4532354 -0.11595307 141.00280654 -0.11902961 142.55231285 -0.1295166 C153.36122117 -0.19706126 160.71667045 0.70889963 168.60327148 8.43600464 C169.35254662 9.19978172 169.35254662 9.19978172 170.11695862 9.97898865 C170.66926147 10.52588852 171.22156433 11.07278839 171.79060364 11.63626099 C173.59322961 13.42649347 175.38108483 15.23068075 177.16847229 17.03611755 C178.42714842 18.29463851 179.68649307 19.55249117 180.94647217 20.80970764 C183.57594696 23.43780275 186.19835246 26.07269291 188.81568909 28.71287537 C192.16393856 32.08955165 195.52757334 35.45038896 198.89641285 38.80650902 C201.49546869 41.39859818 204.08708438 43.99802333 206.6764431 46.5997963 C207.91390005 47.84175499 209.1534331 49.08164881 210.39510536 50.31939316 C212.13017951 52.05154433 213.85519876 53.79313268 215.57789612 55.5375824 C216.08753403 56.04271866 216.59717194 56.54785492 217.12225342 57.06829834 C221.73148466 61.77421677 224.41428245 66.08193074 224.36451721 72.75047302 C224.36429062 73.77107819 224.36406403 74.79168335 224.36383057 75.84321594 C224.34834671 76.92781097 224.33286285 78.01240601 224.31690979 79.12986755 C224.31266495 80.25337616 224.3084201 81.37688477 224.30404663 82.53443909 C224.28729994 86.11076669 224.249654 89.68652374 224.21144104 93.26268005 C224.19638907 95.6923594 224.18270156 98.1220476 224.17042542 100.55174255 C224.1374095 106.49724859 224.08724954 112.44242355 224.02394104 118.38768005 C220.22999573 113.64646912 220.22999573 113.64646912 218.37550354 111.31736755 C203.4991045 93.61377956 182.90707993 83.03572888 160.02394104 80.38768005 C135.63347463 79.35844546 114.41391532 85.11619644 95.02394104 100.38768005 C94.32655823 100.9187738 93.62917542 101.44986755 92.91065979 101.99705505 C76.81265615 115.03030851 66.63227798 136.08165506 64.02394104 156.38768005 C62.58264275 182.85567057 67.74821994 205.38507023 85.52394104 225.70018005 C96.23780959 237.12466234 108.31874842 244.8765448 123.02394104 250.38768005 C123.02394104 250.71768005 123.02394104 251.04768005 123.02394104 251.38768005 C106.60340154 251.48123701 90.18294887 251.55171473 73.76220703 251.59492874 C66.13728409 251.61552959 58.51252703 251.64360248 50.88771057 251.68943787 C44.23975065 251.72938189 37.5919109 251.75513088 30.9438343 251.76403403 C27.42562605 251.76923608 23.90776149 251.78141024 20.3896637 251.81060028 C16.45649407 251.84296771 12.52365673 251.84363461 8.59034729 251.84178162 C7.4315657 251.85616272 6.27278412 251.87054382 5.07888794 251.88536072 C-1.75109707 251.85057383 -6.16645516 251.05679807 -11.97605896 247.38768005 C-17.68682616 241.52662951 -18.27147406 236.02286997 -18.2434845 228.2157135 C-18.24801561 227.28941395 -18.25254672 226.3631144 -18.25721514 225.40874517 C-18.26987979 222.30352828 -18.26823743 219.19848632 -18.2665863 216.09324646 C-18.27257023 213.86743952 -18.27937546 211.64163465 -18.28694153 209.41583252 C-18.30462177 203.36831972 -18.30929774 197.3208635 -18.3105731 191.27332735 C-18.31247161 186.22602851 -18.31982853 181.17874287 -18.32691729 176.1314491 C-18.34227578 164.90452367 -18.34825452 153.67762499 -18.34690659 142.45069225 C-18.34682668 141.77731034 -18.34674676 141.10392842 -18.34666443 140.41014099 C-18.34658267 139.73593512 -18.34650091 139.06172925 -18.34641667 138.36709289 C-18.34560375 127.44041751 -18.36474391 116.51387998 -18.39294116 105.58724447 C-18.42167839 94.36263227 -18.43511484 83.13808522 -18.43375361 71.91342866 C-18.43324343 65.61370256 -18.43895803 59.31413248 -18.46010971 53.01443863 C-18.47945857 47.08989238 -18.4796393 41.16565154 -18.46507645 35.24109459 C-18.46298316 33.06707374 -18.46772009 30.89303395 -18.47979736 28.71904564 C-18.49522172 25.7502085 -18.48595985 22.78242809 -18.47053528 19.81361389 C-18.4808224 18.95416912 -18.49110953 18.09472434 -18.50170839 17.20923579 C-18.43586033 11.47047316 -17.53682666 7.97200242 -13.97605896 3.38768005 C-9.27133351 0.67150019 -5.3796064 0.01102949 0 0 Z " fill="#FD3531" transform="translate(55.97605895996094,146.61231994628906)"/>
<path d="M0 0 C3.01418845 2.62914426 5.79826745 5.43811573 8.57421875 8.31640625 C9.23808594 8.94933594 9.90195312 9.58226562 10.5859375 10.234375 C18.70251259 18.49686604 24.07330895 31.1346525 26.57421875 42.31640625 C26.7546875 43.02667969 26.93515625 43.73695313 27.12109375 44.46875 C29.40493238 58.82149452 28.22760749 74.20290963 21.64453125 87.25390625 C21.31396729 87.91277832 20.98340332 88.57165039 20.64282227 89.25048828 C19.99346191 90.50319753 19.31332965 91.74064354 18.59741211 92.95654297 C17.26024142 95.45170135 16.45758711 97.55102807 16.8894043 100.38476562 C17.64837519 102.77410863 18.56287301 105.02236122 19.57421875 107.31640625 C20.12033813 108.60490479 20.12033813 108.60490479 20.67749023 109.91943359 C22.25235896 113.5816257 23.87861528 117.21942089 25.52148438 120.8515625 C25.91400391 121.74230469 26.30652344 122.63304687 26.7109375 123.55078125 C27.06889404 124.34709961 27.42685059 125.14341797 27.7956543 125.96386719 C28.65997243 128.57552272 28.79437922 130.58238732 28.57421875 133.31640625 C27.44921875 135.19140625 27.44921875 135.19140625 25.57421875 136.31640625 C20.9079462 135.90288084 17.42356021 134.45305903 13.29296875 132.3046875 C12.12121094 131.71236328 10.94945312 131.12003906 9.7421875 130.50976562 C7.90129575 129.56963633 6.06413627 128.62362705 4.23291016 127.66479492 C2.4495188 126.73543875 0.65259224 125.83220331 -1.14453125 124.9296875 C-2.20607422 124.38094971 -3.26761719 123.83221191 -4.36132812 123.2668457 C-8.17640826 122.08359945 -9.82932885 122.72546882 -13.42578125 124.31640625 C-14.96685547 124.9196875 -14.96685547 124.9196875 -16.5390625 125.53515625 C-18.66514407 126.38662726 -20.79015438 127.24077819 -22.9140625 128.09765625 C-40.84398533 134.32027685 -59.86492733 132.52927913 -76.85913086 124.42578125 C-89.61900291 117.96695775 -100.16750718 108.73187505 -107.42578125 96.31640625 C-107.956875 95.41664063 -108.48796875 94.516875 -109.03515625 93.58984375 C-117.90123391 77.30610706 -120.18584105 58.46142829 -115.86328125 40.44140625 C-112.21769961 28.66042136 -106.6963675 18.48631838 -98.42578125 9.31640625 C-97.83410156 8.63191406 -97.24242187 7.94742187 -96.6328125 7.2421875 C-72.31756464 -19.14685549 -27.9534288 -22.91251284 0 0 Z " fill="#003D82" transform="translate(251.42578125,255.68359375)"/>
<path d="M0 0 C4.00670947 1.77904372 7.73242051 3.95271201 11.5 6.1875 C13.73154696 7.47434664 15.96332419 8.76079403 18.1953125 10.046875 C19.32743164 10.70623047 20.45955078 11.36558594 21.62597656 12.04492188 C26.84292086 15.06788063 32.1088751 18.00134821 37.375 20.9375 C39.45842258 22.10400729 41.54175506 23.27067551 43.625 24.4375 C50.20192906 28.11570847 56.78743762 31.7783774 63.375 35.4375 C65.03305664 36.35934082 65.03305664 36.35934082 66.72460938 37.29980469 C72.02245017 40.24356144 77.3235277 43.18086324 82.6355896 46.09886169 C85.11917685 47.46372117 87.60083772 48.83206186 90.08233643 50.20071411 C91.83084279 51.16319331 93.58213602 52.12060421 95.33349609 53.07788086 C96.92798584 53.95778687 96.92798584 53.95778687 98.5546875 54.85546875 C99.48780762 55.36746826 100.42092773 55.87946777 101.38232422 56.40698242 C108.31208526 60.62417052 108.31208526 60.62417052 110 64 C110.38695173 68.10168835 110.41714247 70.31469451 108.25 73.875 C105.94901202 76.04815531 104.98195949 76.41112565 102 77 C101.99090514 83.31776095 102.02823976 89.63403318 102.09765625 95.95141602 C102.11580924 98.09978987 102.12338603 100.24828046 102.12011719 102.39672852 C102.11725815 105.48805937 102.15259365 108.57697284 102.1953125 111.66796875 C102.1816716 113.10573921 102.1816716 113.10573921 102.16775513 114.57255554 C102.16854051 119.46602477 102.16854051 119.46602477 104.34075928 123.66714478 C106.14121964 125.1888031 106.14121964 125.1888031 109 127 C111.28833963 130.95258663 111.39569707 134.48905339 111 139 C109.10672504 144.2590971 106.40216785 146.79008594 102 150 C97.33747142 151.55417619 93.51246673 151.54448802 88.875 149.875 C84.73389177 147.17427724 81.76016896 144.6022962 80.36328125 139.8203125 C79.56398497 134.71512983 79.94297684 131.33900061 83 127 C84.01336426 126.29528564 85.02672852 125.59057129 86.07080078 124.86450195 C87.93485333 123.33687591 88.8635798 122.45006636 89.56756592 120.12753296 C89.78890836 117.87335915 89.8309747 115.68284516 89.8046875 113.41796875 C89.81839386 112.60378983 89.83210022 111.7896109 89.84622192 110.95075989 C89.88347106 108.36244188 89.87981098 105.77604762 89.875 103.1875 C89.89313054 101.42770445 89.91393436 99.66793428 89.9375 97.90820312 C89.98930259 93.60514714 90.00443416 89.30335066 90 85 C89.46109131 85.29245605 88.92218262 85.58491211 88.36694336 85.88623047 C85.8942318 87.22293163 83.41597031 88.54900925 80.9375 89.875 C80.08994141 90.33519531 79.24238281 90.79539062 78.36914062 91.26953125 C73.6285739 93.79539306 69.2328098 95.76457408 64 97 C63.90525391 95.80503906 63.90525391 95.80503906 63.80859375 94.5859375 C63.11000825 87.37026465 63.11000825 87.37026465 59.125 81.625 C57.20953288 80.24059413 57.20953288 80.24059413 55 79 C54.14148438 78.50113281 53.28296875 78.00226563 52.3984375 77.48828125 C22.90086609 61.70588792 -12.91030889 59.77635838 -44.58984375 69.35546875 C-55.19037086 72.75570342 -68.02184688 77.03641147 -74 87 C-74.91455652 89.97353136 -75.54212133 92.92469551 -76 96 C-81.08938399 94.54025421 -85.20545713 92.2881591 -89.6875 89.5625 C-91.18168555 88.66565607 -92.67650311 87.76986445 -94.171875 86.875 C-94.95240234 86.40707031 -95.73292969 85.93914062 -96.53710938 85.45703125 C-99.09756189 83.94228298 -101.67728192 82.46653729 -104.265625 81 C-105.12841064 80.50943115 -105.99119629 80.0188623 -106.88012695 79.51342773 C-108.56069379 78.55995674 -110.24405655 77.6113939 -111.93041992 76.66821289 C-112.69459229 76.2324292 -113.45876465 75.79664551 -114.24609375 75.34765625 C-114.92341553 74.96617432 -115.6007373 74.58469238 -116.29858398 74.19165039 C-118 73 -118 73 -120 70 C-120.4375 66.625 -120.4375 66.625 -120 63 C-115.89887635 57.87996364 -110.4344319 55.17035254 -104.75 52.0625 C-103.73856934 51.50038818 -102.72713867 50.93827637 -101.68505859 50.35913086 C-99.54216347 49.16846891 -97.39742367 47.98112168 -95.25097656 46.796875 C-91.06449417 44.48292859 -86.89324622 42.14234648 -82.72216797 39.80078125 C-79.58725678 38.04131667 -76.45018671 36.28575959 -73.3125 34.53125 C-69.144513 32.20026468 -64.97782213 29.86699393 -60.8125 27.53125 C-50.25228102 21.61013013 -39.68619675 15.69953667 -29.10736084 9.81173706 C-27.35644512 8.83696518 -25.6061924 7.86100272 -23.85595703 6.88500977 C-22.78587402 6.29002686 -21.71579102 5.69504395 -20.61328125 5.08203125 C-19.20236206 4.29662964 -19.20236206 4.29662964 -17.76293945 3.49536133 C-16.85116943 3.00189209 -15.93939941 2.50842285 -15 2 C-13.97994873 1.44296387 -12.95989746 0.88592773 -11.90893555 0.31201172 C-7.55156078 -1.65328681 -4.53723797 -1.28384015 0 0 Z " fill="#003D82" transform="translate(161,17)"/>
<path d="M0 0 C1.1019873 0.00676758 2.20397461 0.01353516 3.33935547 0.02050781 C10.92831151 0.11703942 18.21002376 0.53357031 25.625 2.25 C26.80578125 2.50652344 27.9865625 2.76304688 29.203125 3.02734375 C38.74020096 5.31349467 46.85013402 8.90435209 55.625 13.25 C55.625 21.5 55.625 29.75 55.625 38.25 C19.985 38.25 -15.655 38.25 -52.375 38.25 C-52.375 30.33 -52.375 22.41 -52.375 14.25 C-43.36424059 8.61827537 -43.36424059 8.61827537 -39.38671875 7.30078125 C-38.51466797 7.01009766 -37.64261719 6.71941406 -36.74414062 6.41992188 C-35.85919922 6.13697266 -34.97425781 5.85402344 -34.0625 5.5625 C-33.18916016 5.26794922 -32.31582031 4.97339844 -31.41601562 4.66992188 C-20.93784827 1.23888106 -11.0120188 -0.09809508 0 0 Z " fill="#003C82" transform="translate(153.375,94.75)"/>
<path d="M0 0 C8.23102805 5.33492559 15.24065062 12.13013626 17.51953125 21.890625 C18.63874353 30.09433565 17.1787671 37.35080306 12.3984375 44.16796875 C8.74211138 48.70144382 4.49198511 52.69565546 0.2890625 56.71484375 C-3.82772552 61.04688866 -4.32687529 64.36497991 -5.1015625 70.23046875 C-6.1015625 71.23046875 -6.1015625 71.23046875 -9.69921875 71.328125 C-11.18753117 71.32145095 -12.67582682 71.30949058 -14.1640625 71.29296875 C-14.92267578 71.28845703 -15.68128906 71.28394531 -16.46289062 71.27929688 C-18.34248121 71.26747555 -20.22203149 71.24953953 -22.1015625 71.23046875 C-22.23889855 69.3993214 -22.33459474 67.56503864 -22.4140625 65.73046875 C-22.47207031 64.70953125 -22.53007812 63.68859375 -22.58984375 62.63671875 C-21.45143828 54.69520217 -15.81427008 49.61975231 -9.9765625 44.60546875 C-4.58818042 39.96765133 -0.52531238 36.18546767 0.2734375 28.73046875 C-0.29658973 23.41021464 -1.75425358 20.44946253 -5.7265625 16.85546875 C-10.04173487 14.77779317 -13.39536582 14.39549837 -18.1015625 15.23046875 C-22.53291671 17.44614586 -25.05708611 19.71109988 -27.1015625 24.23046875 C-27.4315625 26.21046875 -27.7615625 28.19046875 -28.1015625 30.23046875 C-33.7115625 30.23046875 -39.3215625 30.23046875 -45.1015625 30.23046875 C-45.1015625 20.94677536 -42.77248352 13.57194852 -36.2890625 6.73046875 C-26.98744246 -1.74316617 -11.84078776 -5.5067419 0 0 Z " fill="#FAFBFC" transform="translate(220.1015625,266.76953125)"/>
<path d="M0 0 C0.88173386 -0.00861557 1.76346771 -0.01723114 2.67192078 -0.02610779 C5.58561582 -0.04880512 8.49835209 -0.04202242 11.41210938 -0.03295898 C13.43705533 -0.03819266 15.46199883 -0.0444682 17.48693848 -0.05174255 C21.73050408 -0.06215355 25.9737345 -0.05757483 30.21728516 -0.04296875 C35.65851531 -0.02577446 41.09869016 -0.04928076 46.53980255 -0.08445835 C50.72112033 -0.10640535 54.90218451 -0.10499749 59.08354187 -0.09669304 C61.0898301 -0.09587215 63.09613669 -0.10276182 65.10237122 -0.11746407 C67.90614963 -0.13486141 70.70801766 -0.12040839 73.51171875 -0.09765625 C74.34197067 -0.10934845 75.1722226 -0.12104065 76.02763367 -0.13308716 C79.98427252 -0.06767462 81.84458219 0.15543514 84.80627441 2.87757874 C86.25585938 5.53344727 86.25585938 5.53344727 86.19335938 8.65844727 C85.22706696 11.621744 84.63298912 12.6289253 82.25585938 14.53344727 C79.30934049 14.83496207 76.57337413 14.95341592 73.62524414 14.9375 C72.3028624 14.94779488 72.3028624 14.94779488 70.95376587 14.95829773 C68.03476938 14.97662379 65.11630739 14.9727199 62.19726562 14.96704102 C60.17089156 14.97160013 58.14451905 14.97690489 56.1181488 14.98292542 C51.86865971 14.99186801 47.61935842 14.98942043 43.36987305 14.97949219 C37.92091375 14.96800293 32.47260251 14.98820768 27.02372837 15.01740932 C22.83814873 15.03574545 18.65272512 15.03548399 14.4671154 15.0297718 C12.45803862 15.02961826 10.44895148 15.03568962 8.4399128 15.04806328 C5.63148344 15.06292204 2.82426045 15.05233389 0.01586914 15.03515625 C-0.81595383 15.04482422 -1.64777679 15.05449219 -2.50480652 15.06445312 C-6.12619951 15.01801221 -8.29751696 14.86072392 -11.26039124 12.68959045 C-13.29172986 9.73770588 -13.32922117 8.04393054 -12.74414062 4.53344727 C-9.41588438 -0.29540432 -5.40693431 -0.04249915 0 0 Z " fill="#FDFDFD" transform="translate(82.744140625,182.466552734375)"/>
<path d="M0 0 C1.16801147 -0.01260864 2.33602295 -0.02521729 3.53942871 -0.03820801 C4.79678833 -0.03011108 6.05414795 -0.02201416 7.34960938 -0.01367188 C8.64402954 -0.01749878 9.93844971 -0.02132568 11.27209473 -0.02526855 C14.00922783 -0.03115875 16.74583796 -0.02261726 19.48291016 -0.00390625 C22.98707964 0.01888443 26.49002371 0.00575858 29.99414825 -0.01819611 C33.34189958 -0.03614642 36.68932325 -0.02356948 40.03710938 -0.01367188 C41.29446899 -0.0217688 42.55182861 -0.02986572 43.84729004 -0.03820801 C45.59930725 -0.01929504 45.59930725 -0.01929504 47.38671875 0 C48.41390015 0.00318237 49.44108154 0.00636475 50.49938965 0.00964355 C53.90621123 0.65198279 55.0941822 1.80586575 57.19335938 4.51757812 C57.69335938 7.51757812 57.69335938 7.51757812 57.19335938 10.51757812 C55.32626027 12.82033369 53.83688196 14.19581683 51.19335938 15.51757812 C49.46358526 15.62343689 47.72979238 15.66635363 45.99682617 15.67871094 C44.36954842 15.69312225 44.36954842 15.69312225 42.70939636 15.70782471 C41.53234634 15.71207458 40.35529633 15.71632446 39.14257812 15.72070312 C37.33343681 15.72925323 37.33343681 15.72925323 35.48774719 15.73797607 C32.93137492 15.74743658 30.3749904 15.75396421 27.81860352 15.7578125 C23.9074981 15.76751206 19.99691935 15.79852403 16.0859375 15.83007812 C13.60482084 15.83660857 11.12370041 15.84185888 8.64257812 15.84570312 C6.88611214 15.86422333 6.88611214 15.86422333 5.09416199 15.88311768 C3.99985367 15.88011658 2.90554535 15.87711548 1.77807617 15.87402344 C0.81814255 15.87766907 -0.14179108 15.8813147 -1.1308136 15.8850708 C-4.32501896 15.44638509 -6.20949265 14.39812517 -8.80664062 12.51757812 C-10.22705883 9.67674171 -10.12116335 7.66280535 -9.80664062 4.51757812 C-6.84331734 0.64850987 -4.79167601 0.01484538 0 0 Z " fill="#FDF7F7" transform="translate(79.806640625,225.482421875)"/>
<path d="M0 0 C2.23654438 -0.00970091 4.47216746 -0.04073334 6.70849609 -0.07226562 C8.13687607 -0.07879678 9.5652626 -0.08404681 10.99365234 -0.08789062 C12.28899902 -0.09723633 13.5843457 -0.10658203 14.91894531 -0.11621094 C18.59194028 0.26244834 20.46486492 1.01678158 23.37646484 3.24023438 C24.79688305 6.08107079 24.69098757 8.09500715 24.37646484 11.24023438 C22.86474609 13.40234375 22.86474609 13.40234375 20.37646484 15.24023438 C17.53542652 15.63815993 15.0896419 15.80195188 12.25146484 15.77148438 C11.46755371 15.77531128 10.68364258 15.77913818 9.87597656 15.78308105 C8.22182935 15.7857979 6.56763902 15.77845248 4.91357422 15.76171875 C2.38460323 15.74030329 -0.1415273 15.76152535 -2.67041016 15.78710938 C-4.27979141 15.78446606 -5.88917091 15.77934098 -7.49853516 15.77148438 C-8.25279785 15.7795813 -9.00706055 15.78767822 -9.78417969 15.79602051 C-13.25363215 15.73419298 -15.26805052 15.49971017 -18.10400391 13.4296875 C-20.30618662 10.2566196 -20.10283613 8.00617061 -19.62353516 4.24023438 C-15.40069718 -1.7923913 -6.54486977 0.01720448 0 0 Z " fill="#FDF7F6" transform="translate(89.62353515625,267.759765625)"/>
<path d="M0 0 C2.87029869 1.79393668 4.49131638 2.98263276 6 6 C6.54837085 10.02138622 6.1184148 11.78685336 4.125 15.375 C1.64583159 18.05958522 -0.39189854 18.49901709 -4 18.6875 C-7.62808727 18.4438225 -8.97000812 18.0191948 -12.125 16 C-14.19644396 12.68568966 -14.75664966 10.78233382 -14.47265625 6.9375 C-12.69089482 -0.36624934 -6.37798419 -1.28252943 0 0 Z " fill="#F8FAFB" transform="translate(211,348)"/>
<path d="M0 0 C1 2 2 4 3 6 C3.99 6.33 4.98 6.66 6 7 C4.02 7.66 2.04 8.32 0 9 C0 6.03 0 3.06 0 0 Z " fill="#05206E" transform="translate(225,105)"/>
</svg>
