<?xml version="1.0" encoding="UTF-8"?>
<!DOCTYPE svg PUBLIC "-//W3C//DTD SVG 1.1//EN" "http://www.w3.org/Graphics/SVG/1.1/DTD/svg11.dtd">
<!-- Creator: CorelDRAW 2020 (64-Bit) -->
<svg xmlns="http://www.w3.org/2000/svg" xml:space="preserve" width="8.04345in" height="2.03756in" version="1.1" style="shape-rendering:geometricPrecision; text-rendering:geometricPrecision; image-rendering:optimizeQuality; fill-rule:evenodd; clip-rule:evenodd"
viewBox="0 0 8046.9 2038.43"
 xmlns:xlink="http://www.w3.org/1999/xlink"
 xmlns:xodm="http://www.corel.com/coreldraw/odm/2003">
 <defs>
  <style type="text/css">
   <![CDATA[
    .str0 {stroke:#373435;stroke-width:13.34;stroke-miterlimit:2.61313}
    .fil3 {fill:none}
    .fil1 {fill:#ED3237}
    .fil2 {fill:#3A6DB3}
    .fil4 {fill:#373435;fill-rule:nonzero}
    .fil0 {fill:#3A6DB3;fill-rule:nonzero}
    .fil5 {fill:#7F7F7F;fill-rule:nonzero}
   ]]>
  </style>
 </defs>
 <g id="Layer_x0020_1">
  <metadata id="CorelCorpID_0Corel-Layer"/>
  <g id="_2029232056480">
   <g>
    <g>
     <path class="fil0" d="M1684.95 1058.64c-25.81,77.82 -88.03,166.55 -153.68,204.33 -124.23,92.37 -391.81,104.31 -490.99,-51.96l156.64 -174.92c59.93,69.62 102.57,89.68 183.64,75.19 31.17,-5.52 52.8,-11.13 74.96,-35.15 35.89,-38.82 25.25,-84.63 -69.81,-100.93 -152.29,-45.5 -208.78,-82.34 -201.95,-206.68 2.27,-41.35 9.56,-79.89 23.01,-116 87.9,-235.94 412.7,-343.74 574.93,-128.67l-156.52 146.14c-21.49,-12.72 -43.68,-28.95 -68.84,-38.08 -36.15,-13.1 -119.95,-7.3 -140.17,30.78 -18.57,34.9 6.54,87.51 77.36,94.42 88.7,21.01 196.19,48.64 206.88,165.01 3.86,42.28 -2.17,96.37 -15.45,136.52z"/>
     <path class="fil0" d="M2661.82 860.31c-28.09,126.1 -85.71,241.52 -188.42,330.7 -102.71,89.17 -212.73,133.75 -330.04,133.75 -120.42,0 -220.96,-35.25 -282.89,-124.4 -61.95,-89.15 -77.19,-206.73 -48.87,-333.93 28.83,-129.48 102.28,-238.27 204.73,-326.31 102.45,-88.04 212.35,-132.04 329.68,-132.04 117.31,0 207.8,44.3 271.42,132.89 63.63,88.59 73.21,189.87 44.38,319.34zm-221.43 12.37c14.04,-63.41 6.35,-116.76 -23.11,-159.89 -29.37,-43.3 -71.92,-64.93 -127.82,-64.93 -53.55,0 -104.91,21.21 -154.17,63.59 -49.14,42.47 -80.82,94.88 -94.56,157.52 -13.84,61.83 -6.13,114.02 23.09,156.86 29.12,42.84 71.64,64.22 127.49,64.22 57.93,0 110.92,-22.19 158.71,-66.69 47.84,-44.47 77.9,-94.73 90.37,-150.68z"/>
     <path class="fil0" d="M3586.53 1301.77l-232.8 4.88 112.08 -497.84c10.37,-46.13 26.24,-88.58 11.23,-135.51 -30.88,-96.52 -150.56,-4.75 -170.9,81.07l-130.62 550.54 -229.67 4.88 124.79 -561.94c8.64,-38.93 15.47,-107.23 -37,-118.83 -50.38,-11.16 -124.4,63.24 -135.43,109.68l-133.76 563.07 -226.53 8.01 206.88 -875.1 211.09 -4.89 -22.56 106.28c84.12,-117.61 272.12,-217.47 366.69,-26.09 107.23,-153.98 494.41,-155.61 429.59,139.8l-143.07 651.99z"/>
     <path class="fil0" d="M4434.83 1301.77l-235.92 8.01 135.18 -548.18c25.82,-184.2 -205.17,-177.95 -259.58,56.32l-111.63 480.71 -229.68 4.88 203.75 -865.7 207.75 -4.9 -15.4 116.34c65.07,-83.84 133.47,-144.04 242.32,-138.28 206.53,10.94 233.29,132.84 197.94,290.46l-134.72 600.32z"/>
     <path class="fil0" d="M5443.74 672.18l-584.4 361.74c69.3,101.95 198.46,75.1 365.77,-38.21l69.51 197.53c-62.42,40.23 -153.98,80.43 -193.35,98.1 -62.63,28.1 -127.53,38.79 -185.1,38.79 -122.13,0 -206.05,-49.09 -261,-137.94 -54.97,-88.85 -67.17,-202.02 -36.66,-339.49 26.05,-117.34 89.69,-213.56 184.64,-297.93 94.95,-84.37 216.25,-145.27 320.23,-145.27 137.75,0 269.08,58.31 320.36,262.68zm-273.85 -8c-31.3,-56.85 -123.08,-54.28 -214.49,8.4 -72.82,49.92 -118.34,153.66 -120.83,204.1l335.32 -212.5z"/>
     <path class="fil0" d="M5927.88 1055.87l-122.03 258.08c-121.17,6.61 -216.64,-25.98 -254.16,-81.09 -33.47,-49.14 -42.93,-142.43 -23.45,-222.52l89.11 -366.2 -119.61 -3.12 89.35 -215.74 85.29 0 39.93 -173.6 255.23 -105.57 -67.2 279.17 134.31 0 -53.46 215.74 -134.32 0 -78.02 328.81c-12.76,53.77 43.09,119.26 159.03,86.04z"/>
     <polygon class="fil0" points="6172.42,1312.66 5940.05,1317.66 6149.98,450.35 6380.8,448.46 "/>
     <path class="fil0" d="M6966.38 1220.12c-101.91,95.86 -332.3,141.83 -462.75,77.63 -45.72,-22.49 -85.66,-54.75 -115.99,-101.62 -57.1,-88.29 -66.15,-195.36 -39.6,-314.94 29.02,-130.74 69.13,-199.17 153.49,-295.73 118.49,-135.6 433.28,-278.62 631.41,-74.08l-166.96 191.68c-150.61,-153.32 -358.31,-6.05 -385.37,182.32 -34.64,241.05 173.56,252.89 307.55,149.63l78.23 185.1z"/>
     <polygon class="fil1" points="789.94,264.5 1024.99,264.5 1024.99,1073.02 789.94,1073.02 "/>
     <polygon class="fil1" points="0.22,665.62 235.26,665.62 235.26,1474.14 0.22,1474.14 "/>
     <polygon class="fil1" points="395.09,665.66 630.12,665.66 630.12,1073.02 395.09,1073.02 "/>
     <path class="fil2" d="M6343.33 99.5c67.19,0 108.03,60.37 91.22,134.8 -16.83,74.44 -84.96,134.8 -152.14,134.8 -67.19,0 -108.03,-60.36 -91.22,-134.8 16.82,-74.43 84.96,-134.8 152.14,-134.8z"/>
     <path class="fil0" d="M7654.7 1063.52c-26.73,76.62 -87.75,162.45 -152.02,199.45 -124.23,92.37 -391.81,104.31 -490.99,-51.96l156.64 -174.92c58.85,68.35 101.03,88.93 179.25,75.96 35.47,-5.85 62.05,-12.77 85.09,-42.71 28.63,-37.23 14.03,-78.79 -75.55,-94.13 -152.29,-45.5 -208.78,-82.34 -201.95,-206.68 2.27,-41.35 9.55,-79.89 23,-116 87.9,-235.94 412.7,-343.74 574.93,-128.67l-156.52 146.14c-27.82,-16.46 -56.78,-38.79 -91.91,-44.04 -26.46,-3.95 -83.41,3.93 -104.18,21.06 -38.57,31.79 -18.19,102.04 64.44,110.11 87.07,20.63 192.28,47.63 206.21,158.76 5.67,45.38 -1.44,104.67 -16.43,147.65z"/>
    </g>
    <g>
     <circle class="fil3 str0" cx="7853.83" cy="193.06" r="186.4"/>
     <path class="fil4" d="M7749.28 297.6l0 -209.1 98.87 0c24.83,0 42.91,1.9 54.16,5.64 11.31,3.75 20.29,10.42 27.06,20 6.75,9.63 10.17,20.59 10.17,32.96 0,15.72 -5.08,28.67 -15.31,38.89 -10.22,10.23 -25.48,16.65 -45.83,19.32 10.13,5.31 18.46,11.15 25,17.52 6.61,6.37 15.48,17.72 26.63,33.98l28.35 40.79 -56.11 0 -33.66 -45.65c-12.06,-16.21 -20.34,-26.44 -24.84,-30.66 -4.43,-4.19 -9.14,-7.11 -14.12,-8.67 -5.03,-1.56 -12.93,-2.34 -23.75,-2.34l-9.52 0 0 87.32 -47.08 0zm47.08 -120.61l34.74 0c22.52,0 36.53,-0.88 42.16,-2.58 5.57,-1.71 10.01,-4.68 13.15,-8.87 3.19,-4.18 4.76,-9.44 4.76,-15.72 0,-7.05 -2.11,-12.7 -6.27,-17.08 -4.17,-4.33 -10.07,-7.06 -17.65,-8.18 -3.84,-0.49 -15.26,-0.73 -34.25,-0.73l-36.63 0 0 53.15z"/>
    </g>
    <path class="fil5" d="M205.82 1920.37c0,23.12 -4.66,43.55 -13.89,61.3 -9.32,17.74 -22.41,31.64 -39.26,41.67 -16.94,9.95 -36.83,14.97 -59.68,14.97 -10.76,0 -21.06,-0.63 -31.01,-1.97 -10.04,-1.34 -19.81,-3.49 -29.39,-6.54 -9.68,-3.04 -19.27,-7.17 -28.95,-12.19l0 -75.37c14.07,9.05 28.59,15.95 43.64,20.7 15.06,4.75 28.95,7.08 41.77,7.08 9.41,0 17.2,-1.8 23.48,-5.56 6.18,-3.67 10.84,-8.69 13.89,-15.06 3.04,-6.36 4.57,-13.44 4.57,-21.42 0,-8.42 -1.25,-15.86 -3.94,-22.23 -2.6,-6.45 -7.62,-12.81 -15.06,-19.27 -7.44,-6.36 -18.37,-13.8 -32.71,-22.23 -11.2,-6.72 -21.33,-13.53 -30.29,-20.52 -9.05,-7.08 -16.76,-14.79 -23.12,-23.3 -6.36,-8.52 -11.29,-18.37 -14.61,-29.66 -3.31,-11.21 -4.93,-24.47 -4.93,-39.79 -0.18,-21.69 4.03,-40.78 12.73,-57.09 8.6,-16.31 21.15,-29.04 37.55,-38.09 16.31,-8.96 36.03,-13.44 58.88,-13.27 15.59,0 30.92,2.06 45.89,6.27 14.96,4.21 29.3,10.22 43.2,17.93l-20.26 65.06c-12.45,-7.53 -24.2,-13.08 -35.22,-16.67 -11.02,-3.59 -21.33,-5.38 -30.92,-5.38 -8.42,0 -15.5,1.61 -21.15,4.93 -5.74,3.23 -9.95,7.71 -12.91,13.35 -2.87,5.65 -4.3,12.1 -4.3,19.27 0,9.14 1.43,16.85 4.21,23.21 2.78,6.27 8.07,12.46 15.87,18.55 7.79,6.09 19,13.27 33.79,21.69 15.86,9.32 29.21,19.18 39.88,29.66 10.67,10.48 18.73,22.14 24.11,35.04 5.47,12.9 8.15,27.87 8.15,44.9z"/>
    <polygon id="1" class="fil5" points="428.79,2032.4 256.28,2032.4 256.28,1648.47 428.79,1648.47 428.79,1711.2 330.03,1711.2 330.03,1801.63 421.89,1801.63 421.89,1864.63 330.03,1864.63 330.03,1968.32 428.79,1968.32 "/>
    <path id="2" class="fil5" d="M655.62 2032.4l-19.89 -92.49 -85.41 0 -19.89 92.49 -79.05 0 92.93 -383.93 95.36 0 94.46 383.93 -78.51 0zm-31.19 -156.56l-20.79 -101.63c-1.34,-8.33 -2.78,-16.58 -4.03,-24.64 -1.34,-8.07 -2.6,-15.77 -3.67,-23.21 -1.16,-7.44 -2.15,-14.43 -3.04,-20.88 -0.54,6.09 -1.35,12.82 -2.33,20.26 -1.08,7.35 -2.33,14.96 -3.67,23.03 -1.43,8.07 -2.96,16.22 -4.75,24.47l-20.52 102.61 62.82 0z"/>
    <path id="3" class="fil5" d="M911.57 2032.4l-75.82 -283.38 -2.15 0c0.9,11.74 1.61,22.77 2.15,33.07 0.54,10.4 0.9,19.9 1.17,28.68 0.27,8.78 0.36,16.58 0.36,23.66l0 197.97 -68.74 0 0 -383.93 101.63 0 70.89 262.85 1.79 0 70.89 -262.85 101.09 0 0 383.93 -70.35 0 0 -198.51c0,-7.89 0.09,-16.13 0.36,-24.83 0.27,-8.69 0.63,-17.92 1.08,-27.87 0.45,-9.86 0.99,-20.43 1.71,-31.64l-2.06 0 -76.44 282.84 -57.54 0z"/>
    <polygon id="4" class="fil5" points="1183.65,2032.4 1183.65,1648.47 1257.41,1648.47 1257.41,1968.32 1359.58,1968.32 1359.58,2032.4 "/>
    <polygon id="5" class="fil5" points="1574.4,2032.4 1401.88,2032.4 1401.88,1648.47 1574.4,1648.47 1574.4,1711.2 1475.63,1711.2 1475.63,1801.63 1567.49,1801.63 1567.49,1864.63 1475.63,1864.63 1475.63,1968.32 1574.4,1968.32 "/>
    <path id="6" class="fil5" d="M1816.46 1920.37c0,23.12 -4.66,43.55 -13.89,61.3 -9.32,17.74 -22.41,31.64 -39.26,41.67 -16.94,9.95 -36.83,14.97 -59.68,14.97 -10.76,0 -21.06,-0.63 -31.01,-1.97 -10.04,-1.34 -19.81,-3.49 -29.39,-6.54 -9.68,-3.04 -19.27,-7.17 -28.95,-12.19l0 -75.37c14.07,9.05 28.59,15.95 43.64,20.7 15.06,4.75 28.95,7.08 41.77,7.08 9.41,0 17.2,-1.8 23.48,-5.56 6.18,-3.67 10.84,-8.69 13.89,-15.06 3.04,-6.36 4.57,-13.44 4.57,-21.42 0,-8.42 -1.25,-15.86 -3.94,-22.23 -2.6,-6.45 -7.62,-12.81 -15.06,-19.27 -7.44,-6.36 -18.37,-13.8 -32.71,-22.23 -11.2,-6.72 -21.33,-13.53 -30.29,-20.52 -9.05,-7.08 -16.76,-14.79 -23.12,-23.3 -6.36,-8.52 -11.29,-18.37 -14.61,-29.66 -3.31,-11.21 -4.93,-24.47 -4.93,-39.79 -0.18,-21.69 4.03,-40.78 12.73,-57.09 8.6,-16.31 21.15,-29.04 37.55,-38.09 16.31,-8.96 36.03,-13.44 58.88,-13.27 15.59,0 30.92,2.06 45.89,6.27 14.96,4.21 29.3,10.22 43.2,17.93l-20.26 65.06c-12.45,-7.53 -24.2,-13.08 -35.22,-16.67 -11.02,-3.59 -21.33,-5.38 -30.92,-5.38 -8.42,0 -15.5,1.61 -21.15,4.93 -5.74,3.23 -9.95,7.71 -12.91,13.35 -2.87,5.65 -4.3,12.1 -4.3,19.27 0,9.14 1.43,16.85 4.21,23.21 2.78,6.27 8.07,12.46 15.87,18.55 7.79,6.09 19,13.27 33.79,21.69 15.86,9.32 29.21,19.18 39.88,29.66 10.67,10.48 18.73,22.14 24.11,35.04 5.47,12.9 8.15,27.87 8.15,44.9z"/>
    <path id="7" class="fil5" d="M2051.97 1920.37c0,23.12 -4.66,43.55 -13.89,61.3 -9.32,17.74 -22.41,31.64 -39.26,41.67 -16.94,9.95 -36.83,14.97 -59.68,14.97 -10.76,0 -21.06,-0.63 -31.01,-1.97 -10.04,-1.34 -19.81,-3.49 -29.39,-6.54 -9.68,-3.04 -19.27,-7.17 -28.95,-12.19l0 -75.37c14.07,9.05 28.59,15.95 43.64,20.7 15.06,4.75 28.95,7.08 41.77,7.08 9.41,0 17.2,-1.8 23.48,-5.56 6.18,-3.67 10.84,-8.69 13.89,-15.06 3.04,-6.36 4.57,-13.44 4.57,-21.42 0,-8.42 -1.25,-15.86 -3.94,-22.23 -2.6,-6.45 -7.62,-12.81 -15.06,-19.27 -7.44,-6.36 -18.37,-13.8 -32.71,-22.23 -11.2,-6.72 -21.33,-13.53 -30.29,-20.52 -9.05,-7.08 -16.76,-14.79 -23.12,-23.3 -6.36,-8.52 -11.29,-18.37 -14.61,-29.66 -3.31,-11.21 -4.93,-24.47 -4.93,-39.79 -0.18,-21.69 4.03,-40.78 12.73,-57.09 8.6,-16.31 21.15,-29.04 37.55,-38.09 16.31,-8.96 36.03,-13.44 58.88,-13.27 15.59,0 30.92,2.06 45.89,6.27 14.96,4.21 29.3,10.22 43.2,17.93l-20.26 65.06c-12.45,-7.53 -24.2,-13.08 -35.22,-16.67 -11.02,-3.59 -21.33,-5.38 -30.92,-5.38 -8.42,0 -15.5,1.61 -21.15,4.93 -5.74,3.23 -9.95,7.71 -12.91,13.35 -2.87,5.65 -4.3,12.1 -4.3,19.27 0,9.14 1.43,16.85 4.21,23.21 2.78,6.27 8.07,12.46 15.87,18.55 7.79,6.09 19,13.27 33.79,21.69 15.86,9.32 29.21,19.18 39.88,29.66 10.67,10.48 18.73,22.14 24.11,35.04 5.47,12.9 8.15,27.87 8.15,44.9z"/>
    <path id="8" class="fil5" d="M2441.91 1833.35c0,42.84 -5.92,79.14 -17.75,108.71 -11.83,29.58 -29.04,52.07 -51.71,67.4 -22.68,15.33 -50.46,22.94 -83.35,22.94l-90.34 0 0 -383.93 95.8 0c31.55,0 58.25,7.08 80.21,21.24 21.96,14.25 38.63,35.04 50.01,62.55 11.38,27.42 17.12,61.12 17.12,101.09zm-75.91 3.41c0,-28.68 -2.69,-52.25 -8.15,-70.62 -5.38,-18.37 -13.53,-31.99 -24.29,-40.77 -10.76,-8.7 -24.11,-13.08 -40.06,-13.08l-20.97 0 0 255.5 16.04 0c26.62,0 46.15,-10.76 58.7,-32.27 12.46,-21.51 18.73,-54.49 18.73,-98.76z"/>
    <polygon id="9" class="fil5" points="2499.35,2032.4 2499.35,1648.47 2573.11,1648.47 2573.11,2032.4 "/>
    <path id="10" class="fil5" d="M2768.75 1816.24l120 0 0 200.74c-18.19,7.17 -36.92,12.55 -56.1,16.04 -19.18,3.5 -38.63,5.29 -58.43,5.29 -31.64,0 -58.17,-8.16 -79.4,-24.38 -21.24,-16.22 -37.28,-39.17 -48.04,-68.83 -10.75,-29.66 -16.13,-64.88 -16.13,-105.57 0,-40.24 6.1,-75.01 18.19,-104.4 12.19,-29.4 30.02,-52.16 53.5,-68.38 23.39,-16.13 52.07,-24.2 85.86,-24.2 18.55,0 35.85,2.24 51.98,6.72 16.04,4.48 30.56,10.22 43.29,17.48l-21.51 60.85c-11.02,-6.99 -22.49,-12.28 -34.24,-15.95 -11.83,-3.67 -24.1,-5.55 -36.92,-5.55 -18.37,0 -33.79,5.2 -46.24,15.68 -12.37,10.49 -21.78,25.72 -28.05,45.89 -6.27,20.17 -9.5,44.81 -9.5,73.94 0,26.89 2.6,50.36 7.8,70.26 5.11,19.98 12.99,35.4 23.57,46.33 10.67,10.84 24.2,16.31 40.6,16.31 6.81,0 13.44,-0.54 19.81,-1.61 6.45,-0.99 12.37,-2.51 18.01,-4.48l0 -89.98 -48.03 0 0 -62.19z"/>
    <polygon id="11" class="fil5" points="2950.67,2032.4 2950.67,1648.47 3024.43,1648.47 3024.43,2032.4 "/>
    <polygon id="12" class="fil5" points="3210.57,2032.4 3137.89,2032.4 3137.89,1712.28 3066.46,1712.28 3066.46,1648.47 3281.46,1648.47 3281.46,1712.28 3210.57,1712.28 "/>
    <path id="13" class="fil5" d="M3493.86 2032.4l-19.89 -92.49 -85.41 0 -19.89 92.49 -79.05 0 92.93 -383.93 95.36 0 94.46 383.93 -78.51 0zm-31.19 -156.56l-20.79 -101.63c-1.34,-8.33 -2.78,-16.58 -4.03,-24.64 -1.34,-8.07 -2.6,-15.77 -3.67,-23.21 -1.16,-7.44 -2.15,-14.43 -3.04,-20.88 -0.54,6.09 -1.35,12.82 -2.33,20.26 -1.08,7.35 -2.33,14.96 -3.67,23.03 -1.43,8.07 -2.96,16.22 -4.75,24.47l-20.52 102.61 62.82 0z"/>
    <polygon id="14" class="fil5" points="3606.77,2032.4 3606.77,1648.47 3680.53,1648.47 3680.53,1968.32 3782.7,1968.32 3782.7,2032.4 "/>
    <polygon id="15" class="fil5" points="4038.65,2032.4 3965.97,2032.4 3965.97,1712.28 3894.54,1712.28 3894.54,1648.47 4109.54,1648.47 4109.54,1712.28 4038.65,1712.28 "/>
    <path id="16" class="fil5" d="M4241.37 1648.47c28.32,0 51.89,4.12 70.62,12.37 18.73,8.16 32.71,20.52 41.85,37.01 9.23,16.4 13.81,37.1 13.81,61.93 0,15.77 -1.88,30.02 -5.74,42.93 -3.85,12.82 -9.86,24.29 -18.01,34.41 -8.16,10.04 -18.55,18.82 -31.1,26.35l79.05 168.93 -81.2 0 -62.73 -150.56 -22.05 0 0 150.56 -73.76 0 0 -383.93 89.26 0zm-0.54 62.2l-14.97 0 0 112.92 16.58 0c16.4,0 28.85,-5.02 37.37,-14.96 8.52,-10.04 12.73,-25.09 12.73,-45.17 0,-18.02 -4.21,-31.28 -12.73,-39.88 -8.52,-8.6 -21.51,-12.9 -38.99,-12.9z"/>
    <path id="17" class="fil5" d="M4597.34 2032.4l-19.89 -92.49 -85.41 0 -19.89 92.49 -79.05 0 92.93 -383.93 95.36 0 94.46 383.93 -78.51 0zm-31.19 -156.56l-20.79 -101.63c-1.34,-8.33 -2.78,-16.58 -4.03,-24.64 -1.34,-8.07 -2.6,-15.77 -3.67,-23.21 -1.16,-7.44 -2.15,-14.43 -3.04,-20.88 -0.54,6.09 -1.35,12.82 -2.33,20.26 -1.08,7.35 -2.33,14.96 -3.67,23.03 -1.43,8.07 -2.96,16.22 -4.75,24.47l-20.52 102.61 62.82 0z"/>
    <path id="18" class="fil5" d="M4975.98 2032.4l-86.66 0 -112.38 -267.87 -2.15 0c1.08,12.46 1.97,24.1 2.51,35.04 0.63,10.93 1.08,20.97 1.34,30.12 0.27,9.05 0.36,17.29 0.36,24.64l0 178.07 -68.74 0 0 -383.93 86.12 0 111.85 261.78 2.06 0c-0.72,-12.01 -1.25,-23.3 -1.79,-33.7 -0.54,-10.4 -0.98,-20.08 -1.34,-29.04 -0.36,-8.96 -0.54,-17.03 -0.54,-24.38l0 -174.67 69.36 0 0 383.93z"/>
    <path id="19" class="fil5" d="M5229.78 1920.37c0,23.12 -4.66,43.55 -13.89,61.3 -9.32,17.74 -22.41,31.64 -39.26,41.67 -16.94,9.95 -36.83,14.97 -59.68,14.97 -10.76,0 -21.06,-0.63 -31.01,-1.97 -10.04,-1.34 -19.81,-3.49 -29.39,-6.54 -9.68,-3.04 -19.27,-7.17 -28.95,-12.19l0 -75.37c14.07,9.05 28.59,15.95 43.64,20.7 15.06,4.75 28.95,7.08 41.77,7.08 9.41,0 17.2,-1.8 23.48,-5.56 6.18,-3.67 10.84,-8.69 13.89,-15.06 3.04,-6.36 4.57,-13.44 4.57,-21.42 0,-8.42 -1.25,-15.86 -3.94,-22.23 -2.6,-6.45 -7.62,-12.81 -15.06,-19.27 -7.44,-6.36 -18.37,-13.8 -32.71,-22.23 -11.2,-6.72 -21.33,-13.53 -30.29,-20.52 -9.05,-7.08 -16.76,-14.79 -23.12,-23.3 -6.36,-8.52 -11.29,-18.37 -14.61,-29.66 -3.31,-11.21 -4.93,-24.47 -4.93,-39.79 -0.18,-21.69 4.03,-40.78 12.73,-57.09 8.6,-16.31 21.15,-29.04 37.55,-38.09 16.31,-8.96 36.03,-13.44 58.88,-13.27 15.59,0 30.92,2.06 45.89,6.27 14.96,4.21 29.3,10.22 43.2,17.93l-20.26 65.06c-12.45,-7.53 -24.2,-13.08 -35.22,-16.67 -11.02,-3.59 -21.33,-5.38 -30.92,-5.38 -8.42,0 -15.5,1.61 -21.15,4.93 -5.74,3.23 -9.95,7.71 -12.91,13.35 -2.87,5.65 -4.3,12.1 -4.3,19.27 0,9.14 1.43,16.85 4.21,23.21 2.78,6.27 8.07,12.46 15.87,18.55 7.79,6.09 19,13.27 33.79,21.69 15.86,9.32 29.21,19.18 39.88,29.66 10.67,10.48 18.73,22.14 24.11,35.04 5.47,12.9 8.15,27.87 8.15,44.9z"/>
    <polygon id="20" class="fil5" points="5353.99,2032.4 5280.23,2032.4 5280.23,1648.47 5451.68,1648.47 5451.68,1711.2 5353.99,1711.2 5353.99,1815.88 5445.4,1815.88 5445.4,1878.61 5353.99,1878.61 "/>
    <path id="21" class="fil5" d="M5764.09 1840.25c0,30.56 -2.78,57.99 -8.42,82.45 -5.56,24.46 -13.98,45.35 -25.18,62.46 -11.2,17.21 -25.36,30.38 -42.39,39.43 -17.12,9.14 -37.1,13.71 -60.05,13.71 -23.12,0 -43.2,-4.57 -60.4,-13.8 -17.12,-9.23 -31.28,-22.49 -42.48,-39.88 -11.2,-17.29 -19.63,-38.18 -25.18,-62.55 -5.64,-24.38 -8.42,-51.8 -8.42,-82.27 0,-43.2 5.11,-79.4 15.51,-108.62 10.3,-29.3 25.63,-51.35 45.89,-66.32 20.34,-14.88 45.35,-22.32 75.1,-22.32 31.01,0 56.55,7.98 76.53,23.93 20.08,15.96 34.95,38.72 44.81,68.2 9.77,29.58 14.7,64.8 14.7,105.57zm-196.18 0c0,29.49 2.33,54.13 6.9,73.85 4.48,19.72 11.29,34.59 20.17,44.45 8.96,9.95 19.98,14.88 33.07,14.88 13.35,0 24.38,-4.75 33.25,-14.43 8.78,-9.68 15.5,-24.29 19.98,-44 4.39,-19.63 6.63,-44.54 6.63,-74.74 0,-45.08 -4.93,-78.59 -14.97,-100.64 -9.95,-21.95 -24.91,-32.98 -44.9,-32.98 -13.08,0 -24.11,5.02 -33.07,14.97 -8.87,10.04 -15.68,24.91 -20.17,44.72 -4.57,19.89 -6.9,44.54 -6.9,73.93z"/>
    <path id="22" class="fil5" d="M5910.88 1648.47c28.32,0 51.89,4.12 70.62,12.37 18.73,8.16 32.71,20.52 41.85,37.01 9.23,16.4 13.81,37.1 13.81,61.93 0,15.77 -1.88,30.02 -5.74,42.93 -3.85,12.82 -9.86,24.29 -18.01,34.41 -8.16,10.04 -18.55,18.82 -31.1,26.35l79.05 168.93 -81.2 0 -62.73 -150.56 -22.05 0 0 150.56 -73.76 0 0 -383.93 89.26 0zm-0.54 62.2l-14.97 0 0 112.92 16.58 0c16.4,0 28.85,-5.02 37.37,-14.96 8.52,-10.04 12.73,-25.09 12.73,-45.17 0,-18.02 -4.21,-31.28 -12.73,-39.88 -8.52,-8.6 -21.51,-12.9 -38.99,-12.9z"/>
    <path id="23" class="fil5" d="M6240.06 2032.4l-75.82 -283.38 -2.15 0c0.9,11.74 1.61,22.77 2.15,33.07 0.54,10.4 0.9,19.9 1.17,28.68 0.27,8.78 0.36,16.58 0.36,23.66l0 197.97 -68.74 0 0 -383.93 101.63 0 70.89 262.85 1.79 0 70.89 -262.85 101.09 0 0 383.93 -70.35 0 0 -198.51c0,-7.89 0.09,-16.13 0.36,-24.83 0.27,-8.69 0.63,-17.92 1.08,-27.87 0.45,-9.86 0.99,-20.43 1.71,-31.64l-2.06 0 -76.44 282.84 -57.54 0z"/>
    <path id="24" class="fil5" d="M6681.97 2032.4l-19.89 -92.49 -85.41 0 -19.89 92.49 -79.05 0 92.93 -383.93 95.36 0 94.46 383.93 -78.51 0zm-31.19 -156.56l-20.79 -101.63c-1.34,-8.33 -2.78,-16.58 -4.03,-24.64 -1.34,-8.07 -2.6,-15.77 -3.67,-23.21 -1.16,-7.44 -2.15,-14.43 -3.04,-20.88 -0.54,6.09 -1.35,12.82 -2.33,20.26 -1.08,7.35 -2.33,14.96 -3.67,23.03 -1.43,8.07 -2.96,16.22 -4.75,24.47l-20.52 102.61 62.82 0z"/>
    <polygon id="25" class="fil5" points="6912.2,2032.4 6839.52,2032.4 6839.52,1712.28 6768.09,1712.28 6768.09,1648.47 6983.09,1648.47 6983.09,1712.28 6912.2,1712.28 "/>
    <polygon id="26" class="fil5" points="7025.65,2032.4 7025.65,1648.47 7099.41,1648.47 7099.41,2032.4 "/>
    <path id="27" class="fil5" d="M7429.48 1840.25c0,30.56 -2.78,57.99 -8.42,82.45 -5.56,24.46 -13.98,45.35 -25.18,62.46 -11.2,17.21 -25.36,30.38 -42.39,39.43 -17.12,9.14 -37.1,13.71 -60.05,13.71 -23.12,0 -43.2,-4.57 -60.4,-13.8 -17.12,-9.23 -31.28,-22.49 -42.48,-39.88 -11.2,-17.29 -19.63,-38.18 -25.18,-62.55 -5.64,-24.38 -8.42,-51.8 -8.42,-82.27 0,-43.2 5.11,-79.4 15.51,-108.62 10.3,-29.3 25.63,-51.35 45.89,-66.32 20.34,-14.88 45.35,-22.32 75.1,-22.32 31.01,0 56.55,7.98 76.53,23.93 20.08,15.96 34.95,38.72 44.81,68.2 9.77,29.58 14.7,64.8 14.7,105.57zm-196.18 0c0,29.49 2.33,54.13 6.9,73.85 4.48,19.72 11.29,34.59 20.17,44.45 8.96,9.95 19.98,14.88 33.07,14.88 13.35,0 24.38,-4.75 33.25,-14.43 8.78,-9.68 15.5,-24.29 19.98,-44 4.39,-19.63 6.63,-44.54 6.63,-74.74 0,-45.08 -4.93,-78.59 -14.97,-100.64 -9.95,-21.95 -24.91,-32.98 -44.9,-32.98 -13.08,0 -24.11,5.02 -33.07,14.97 -8.87,10.04 -15.68,24.91 -20.17,44.72 -4.57,19.89 -6.9,44.54 -6.9,73.93z"/>
    <path id="28" class="fil5" d="M7752.73 2032.4l-86.66 0 -112.38 -267.87 -2.15 0c1.08,12.46 1.97,24.1 2.51,35.04 0.63,10.93 1.08,20.97 1.34,30.12 0.27,9.05 0.36,17.29 0.36,24.64l0 178.07 -68.74 0 0 -383.93 86.12 0 111.85 261.78 2.06 0c-0.72,-12.01 -1.25,-23.3 -1.79,-33.7 -0.54,-10.4 -0.98,-20.08 -1.34,-29.04 -0.36,-8.96 -0.54,-17.03 -0.54,-24.38l0 -174.67 69.36 0 0 383.93z"/>
   </g>
   <rect class="fil3" x="-0" y="6.55" width="8040.45" height="2031.87"/>
  </g>
 </g>
</svg>
